%FSLAX34Y34*%
G04 Gerber Fmt 3.4, Leading zero omitted, Abs format*
G04 (created by PCBNEW (2014-03-19 BZR 4756)-product) date Wed 28 May 2014 22:47:49 BST*
%MOIN*%
G01*
G70*
G90*
G04 APERTURE LIST*
%ADD10C,0.005906*%
%ADD11C,0.011811*%
%ADD12C,0.055000*%
%ADD13O,0.068000X0.080000*%
%ADD14R,0.068000X0.080000*%
%ADD15R,0.068000X0.068000*%
%ADD16O,0.068000X0.068000*%
%ADD17R,0.098425X0.098425*%
G04 APERTURE END LIST*
G54D10*
G54D11*
X70686Y-45798D02*
X70686Y-46068D01*
X70686Y-45933D02*
X70213Y-45933D01*
X70281Y-45978D01*
X70326Y-46023D01*
X70348Y-46068D01*
X70213Y-45506D02*
X70213Y-45461D01*
X70236Y-45416D01*
X70258Y-45393D01*
X70303Y-45371D01*
X70393Y-45348D01*
X70506Y-45348D01*
X70596Y-45371D01*
X70641Y-45393D01*
X70663Y-45416D01*
X70686Y-45461D01*
X70686Y-45506D01*
X70663Y-45551D01*
X70641Y-45573D01*
X70596Y-45596D01*
X70506Y-45618D01*
X70393Y-45618D01*
X70303Y-45596D01*
X70258Y-45573D01*
X70236Y-45551D01*
X70213Y-45506D01*
X70371Y-45213D02*
X70371Y-45033D01*
X70213Y-45146D02*
X70618Y-45146D01*
X70663Y-45123D01*
X70686Y-45078D01*
X70686Y-45033D01*
X70686Y-44808D02*
X70663Y-44853D01*
X70641Y-44876D01*
X70596Y-44898D01*
X70461Y-44898D01*
X70416Y-44876D01*
X70393Y-44853D01*
X70371Y-44808D01*
X70371Y-44741D01*
X70393Y-44696D01*
X70416Y-44673D01*
X70461Y-44651D01*
X70596Y-44651D01*
X70641Y-44673D01*
X70663Y-44696D01*
X70686Y-44741D01*
X70686Y-44808D01*
X70213Y-44493D02*
X70213Y-44178D01*
X70686Y-44381D01*
X70641Y-43998D02*
X70663Y-43976D01*
X70686Y-43998D01*
X70663Y-44021D01*
X70641Y-43998D01*
X70686Y-43998D01*
X70663Y-43571D02*
X70686Y-43616D01*
X70686Y-43706D01*
X70663Y-43751D01*
X70641Y-43773D01*
X70596Y-43796D01*
X70461Y-43796D01*
X70416Y-43773D01*
X70393Y-43751D01*
X70371Y-43706D01*
X70371Y-43616D01*
X70393Y-43571D01*
X70686Y-43301D02*
X70663Y-43346D01*
X70641Y-43368D01*
X70596Y-43391D01*
X70461Y-43391D01*
X70416Y-43368D01*
X70393Y-43346D01*
X70371Y-43301D01*
X70371Y-43233D01*
X70393Y-43188D01*
X70416Y-43166D01*
X70461Y-43143D01*
X70596Y-43143D01*
X70641Y-43166D01*
X70663Y-43188D01*
X70686Y-43233D01*
X70686Y-43301D01*
X70686Y-42941D02*
X70371Y-42941D01*
X70416Y-42941D02*
X70393Y-42919D01*
X70371Y-42874D01*
X70371Y-42806D01*
X70393Y-42761D01*
X70438Y-42739D01*
X70686Y-42739D01*
X70438Y-42739D02*
X70393Y-42716D01*
X70371Y-42671D01*
X70371Y-42604D01*
X70393Y-42559D01*
X70438Y-42536D01*
X70686Y-42536D01*
G54D12*
X65901Y-43440D03*
X65901Y-41440D03*
X68901Y-43440D03*
X68901Y-41440D03*
G54D13*
X63964Y-47344D03*
X62964Y-47344D03*
X61964Y-47344D03*
X60964Y-47344D03*
X59964Y-47344D03*
X58964Y-47344D03*
X57964Y-47344D03*
X56964Y-47344D03*
X55964Y-47344D03*
X54964Y-47344D03*
X53964Y-47344D03*
G54D14*
X52964Y-47344D03*
G54D13*
X52964Y-41340D03*
X53964Y-41340D03*
X54964Y-41340D03*
X55964Y-41340D03*
X56964Y-41340D03*
X57964Y-41340D03*
X58964Y-41340D03*
X59964Y-41340D03*
X60964Y-41340D03*
X61964Y-41340D03*
X62964Y-41340D03*
X63964Y-41340D03*
G54D15*
X68480Y-46429D03*
G54D16*
X68480Y-47429D03*
X67480Y-46429D03*
X67480Y-47429D03*
X66480Y-46429D03*
X66480Y-47429D03*
G54D17*
X50984Y-41141D03*
X50984Y-47440D03*
X70472Y-41141D03*
X70472Y-47440D03*
M02*
