M48
INCH,TZ
T1C0.025
T2C0.032
T3C0.040
T4C0.079
%
G90
G05
T1
X59252Y-42520
X65157Y-44685
T2
X65902Y-41441
X65902Y-43441
X68902Y-41441
X68902Y-43441
T3
X52965Y-41340
X52965Y-47344
X53965Y-41340
X53965Y-47344
X54965Y-41340
X54965Y-47344
X55965Y-41340
X55965Y-47344
X56965Y-41340
X56965Y-47344
X57965Y-41340
X57965Y-47344
X58965Y-41340
X58965Y-47344
X59965Y-41340
X59965Y-47344
X60965Y-41340
X60965Y-47344
X61965Y-41340
X61965Y-47344
X62965Y-41340
X62965Y-47344
X63965Y-41340
X63965Y-47344
X66480Y-46429
X66480Y-47429
X67480Y-46429
X67480Y-47429
X68480Y-46429
X68480Y-47429
T4
X50984Y-41142
X50984Y-47441
X70472Y-41142
X70472Y-47441
T0
M30
