%FSLAX34Y34*%
G04 Gerber Fmt 3.4, Leading zero omitted, Abs format*
G04 (created by PCBNEW (2014-03-19 BZR 4756)-product) date Wed 28 May 2014 22:47:49 BST*
%MOIN*%
G01*
G70*
G90*
G04 APERTURE LIST*
%ADD10C,0.005906*%
%ADD11C,0.011811*%
%ADD12C,0.055000*%
%ADD13O,0.068000X0.080000*%
%ADD14R,0.068000X0.080000*%
%ADD15R,0.068000X0.068000*%
%ADD16O,0.068000X0.068000*%
%ADD17R,0.098425X0.098425*%
%ADD18C,0.035000*%
%ADD19C,0.010000*%
%ADD20C,0.007087*%
G04 APERTURE END LIST*
G54D10*
G54D11*
X70686Y-45798D02*
X70686Y-46068D01*
X70686Y-45933D02*
X70213Y-45933D01*
X70281Y-45978D01*
X70326Y-46023D01*
X70348Y-46068D01*
X70213Y-45506D02*
X70213Y-45461D01*
X70236Y-45416D01*
X70258Y-45393D01*
X70303Y-45371D01*
X70393Y-45348D01*
X70506Y-45348D01*
X70596Y-45371D01*
X70641Y-45393D01*
X70663Y-45416D01*
X70686Y-45461D01*
X70686Y-45506D01*
X70663Y-45551D01*
X70641Y-45573D01*
X70596Y-45596D01*
X70506Y-45618D01*
X70393Y-45618D01*
X70303Y-45596D01*
X70258Y-45573D01*
X70236Y-45551D01*
X70213Y-45506D01*
X70371Y-45213D02*
X70371Y-45033D01*
X70213Y-45146D02*
X70618Y-45146D01*
X70663Y-45123D01*
X70686Y-45078D01*
X70686Y-45033D01*
X70686Y-44808D02*
X70663Y-44853D01*
X70641Y-44876D01*
X70596Y-44898D01*
X70461Y-44898D01*
X70416Y-44876D01*
X70393Y-44853D01*
X70371Y-44808D01*
X70371Y-44741D01*
X70393Y-44696D01*
X70416Y-44673D01*
X70461Y-44651D01*
X70596Y-44651D01*
X70641Y-44673D01*
X70663Y-44696D01*
X70686Y-44741D01*
X70686Y-44808D01*
X70213Y-44493D02*
X70213Y-44178D01*
X70686Y-44381D01*
X70641Y-43998D02*
X70663Y-43976D01*
X70686Y-43998D01*
X70663Y-44021D01*
X70641Y-43998D01*
X70686Y-43998D01*
X70663Y-43571D02*
X70686Y-43616D01*
X70686Y-43706D01*
X70663Y-43751D01*
X70641Y-43773D01*
X70596Y-43796D01*
X70461Y-43796D01*
X70416Y-43773D01*
X70393Y-43751D01*
X70371Y-43706D01*
X70371Y-43616D01*
X70393Y-43571D01*
X70686Y-43301D02*
X70663Y-43346D01*
X70641Y-43368D01*
X70596Y-43391D01*
X70461Y-43391D01*
X70416Y-43368D01*
X70393Y-43346D01*
X70371Y-43301D01*
X70371Y-43233D01*
X70393Y-43188D01*
X70416Y-43166D01*
X70461Y-43143D01*
X70596Y-43143D01*
X70641Y-43166D01*
X70663Y-43188D01*
X70686Y-43233D01*
X70686Y-43301D01*
X70686Y-42941D02*
X70371Y-42941D01*
X70416Y-42941D02*
X70393Y-42919D01*
X70371Y-42874D01*
X70371Y-42806D01*
X70393Y-42761D01*
X70438Y-42739D01*
X70686Y-42739D01*
X70438Y-42739D02*
X70393Y-42716D01*
X70371Y-42671D01*
X70371Y-42604D01*
X70393Y-42559D01*
X70438Y-42536D01*
X70686Y-42536D01*
G54D12*
X65901Y-43440D03*
X65901Y-41440D03*
X68901Y-43440D03*
X68901Y-41440D03*
G54D13*
X63964Y-47344D03*
X62964Y-47344D03*
X61964Y-47344D03*
X60964Y-47344D03*
X59964Y-47344D03*
X58964Y-47344D03*
X57964Y-47344D03*
X56964Y-47344D03*
X55964Y-47344D03*
X54964Y-47344D03*
X53964Y-47344D03*
G54D14*
X52964Y-47344D03*
G54D13*
X52964Y-41340D03*
X53964Y-41340D03*
X54964Y-41340D03*
X55964Y-41340D03*
X56964Y-41340D03*
X57964Y-41340D03*
X58964Y-41340D03*
X59964Y-41340D03*
X60964Y-41340D03*
X61964Y-41340D03*
X62964Y-41340D03*
X63964Y-41340D03*
G54D15*
X68480Y-46429D03*
G54D16*
X68480Y-47429D03*
X67480Y-46429D03*
X67480Y-47429D03*
X66480Y-46429D03*
X66480Y-47429D03*
G54D17*
X50984Y-41141D03*
X50984Y-47440D03*
X70472Y-41141D03*
X70472Y-47440D03*
G54D18*
X65157Y-44685D03*
X59251Y-42519D03*
G54D19*
X54964Y-41340D02*
X55455Y-41340D01*
X68901Y-43440D02*
X65901Y-43440D01*
X55455Y-41077D02*
X55455Y-41340D01*
X55755Y-40776D02*
X55455Y-41077D01*
X62163Y-40776D02*
X55755Y-40776D01*
X62464Y-41077D02*
X62163Y-40776D01*
X62464Y-41599D02*
X62464Y-41077D01*
X64306Y-43440D02*
X62464Y-41599D01*
X65901Y-43440D02*
X64306Y-43440D01*
X66480Y-47429D02*
X65990Y-47429D01*
X54964Y-47344D02*
X55964Y-47344D01*
X65520Y-47898D02*
X65990Y-47429D01*
X56764Y-47898D02*
X65520Y-47898D01*
X56455Y-47589D02*
X56764Y-47898D01*
X56455Y-47344D02*
X56455Y-47589D01*
X55964Y-47344D02*
X56455Y-47344D01*
X56455Y-41603D02*
X56455Y-41340D01*
X58684Y-43832D02*
X56455Y-41603D01*
X63028Y-43832D02*
X58684Y-43832D01*
X66135Y-46939D02*
X63028Y-43832D01*
X67683Y-46939D02*
X66135Y-46939D01*
X67990Y-47245D02*
X67683Y-46939D01*
X67990Y-47429D02*
X67990Y-47245D01*
X68480Y-47429D02*
X67990Y-47429D01*
X55964Y-41340D02*
X56455Y-41340D01*
X61455Y-41603D02*
X61455Y-41340D01*
X65790Y-45939D02*
X61455Y-41603D01*
X66683Y-45939D02*
X65790Y-45939D01*
X66990Y-46245D02*
X66683Y-45939D01*
X66990Y-46429D02*
X66990Y-46245D01*
X67480Y-46429D02*
X66990Y-46429D01*
X60964Y-41340D02*
X61455Y-41340D01*
X61964Y-41385D02*
X61964Y-41340D01*
X64888Y-44309D02*
X61964Y-41385D01*
X66053Y-44309D02*
X64888Y-44309D01*
X67990Y-46245D02*
X66053Y-44309D01*
X67990Y-46429D02*
X67990Y-46245D01*
X68480Y-46429D02*
X67990Y-46429D01*
G54D10*
G36*
X66183Y-46095D02*
X66155Y-46113D01*
X66059Y-46258D01*
X66025Y-46429D01*
X66059Y-46599D01*
X66143Y-46726D01*
X63139Y-43721D01*
X63088Y-43687D01*
X63028Y-43675D01*
X58748Y-43675D01*
X56920Y-41847D01*
X56964Y-41856D01*
X57135Y-41822D01*
X57280Y-41725D01*
X57377Y-41580D01*
X57411Y-41410D01*
X57411Y-41270D01*
X57377Y-41099D01*
X57280Y-40954D01*
X57247Y-40932D01*
X57682Y-40932D01*
X57649Y-40954D01*
X57552Y-41099D01*
X57518Y-41270D01*
X57518Y-41410D01*
X57552Y-41580D01*
X57649Y-41725D01*
X57794Y-41822D01*
X57964Y-41856D01*
X58135Y-41822D01*
X58280Y-41725D01*
X58377Y-41580D01*
X58411Y-41410D01*
X58411Y-41270D01*
X58377Y-41099D01*
X58280Y-40954D01*
X58247Y-40932D01*
X58682Y-40932D01*
X58649Y-40954D01*
X58552Y-41099D01*
X58518Y-41270D01*
X58518Y-41410D01*
X58552Y-41580D01*
X58649Y-41725D01*
X58794Y-41822D01*
X58964Y-41856D01*
X59135Y-41822D01*
X59280Y-41725D01*
X59377Y-41580D01*
X59411Y-41410D01*
X59411Y-41270D01*
X59377Y-41099D01*
X59280Y-40954D01*
X59247Y-40932D01*
X59682Y-40932D01*
X59649Y-40954D01*
X59552Y-41099D01*
X59518Y-41270D01*
X59518Y-41410D01*
X59552Y-41580D01*
X59649Y-41725D01*
X59794Y-41822D01*
X59964Y-41856D01*
X60135Y-41822D01*
X60280Y-41725D01*
X60377Y-41580D01*
X60411Y-41410D01*
X60411Y-41270D01*
X60377Y-41099D01*
X60280Y-40954D01*
X60247Y-40932D01*
X60682Y-40932D01*
X60649Y-40954D01*
X60552Y-41099D01*
X60518Y-41270D01*
X60518Y-41410D01*
X60552Y-41580D01*
X60649Y-41725D01*
X60794Y-41822D01*
X60964Y-41856D01*
X61135Y-41822D01*
X61280Y-41725D01*
X61316Y-41671D01*
X61344Y-41713D01*
X65680Y-46049D01*
X65731Y-46083D01*
X65790Y-46095D01*
X66183Y-46095D01*
X66183Y-46095D01*
G37*
G54D20*
X66183Y-46095D02*
X66155Y-46113D01*
X66059Y-46258D01*
X66025Y-46429D01*
X66059Y-46599D01*
X66143Y-46726D01*
X63139Y-43721D01*
X63088Y-43687D01*
X63028Y-43675D01*
X58748Y-43675D01*
X56920Y-41847D01*
X56964Y-41856D01*
X57135Y-41822D01*
X57280Y-41725D01*
X57377Y-41580D01*
X57411Y-41410D01*
X57411Y-41270D01*
X57377Y-41099D01*
X57280Y-40954D01*
X57247Y-40932D01*
X57682Y-40932D01*
X57649Y-40954D01*
X57552Y-41099D01*
X57518Y-41270D01*
X57518Y-41410D01*
X57552Y-41580D01*
X57649Y-41725D01*
X57794Y-41822D01*
X57964Y-41856D01*
X58135Y-41822D01*
X58280Y-41725D01*
X58377Y-41580D01*
X58411Y-41410D01*
X58411Y-41270D01*
X58377Y-41099D01*
X58280Y-40954D01*
X58247Y-40932D01*
X58682Y-40932D01*
X58649Y-40954D01*
X58552Y-41099D01*
X58518Y-41270D01*
X58518Y-41410D01*
X58552Y-41580D01*
X58649Y-41725D01*
X58794Y-41822D01*
X58964Y-41856D01*
X59135Y-41822D01*
X59280Y-41725D01*
X59377Y-41580D01*
X59411Y-41410D01*
X59411Y-41270D01*
X59377Y-41099D01*
X59280Y-40954D01*
X59247Y-40932D01*
X59682Y-40932D01*
X59649Y-40954D01*
X59552Y-41099D01*
X59518Y-41270D01*
X59518Y-41410D01*
X59552Y-41580D01*
X59649Y-41725D01*
X59794Y-41822D01*
X59964Y-41856D01*
X60135Y-41822D01*
X60280Y-41725D01*
X60377Y-41580D01*
X60411Y-41410D01*
X60411Y-41270D01*
X60377Y-41099D01*
X60280Y-40954D01*
X60247Y-40932D01*
X60682Y-40932D01*
X60649Y-40954D01*
X60552Y-41099D01*
X60518Y-41270D01*
X60518Y-41410D01*
X60552Y-41580D01*
X60649Y-41725D01*
X60794Y-41822D01*
X60964Y-41856D01*
X61135Y-41822D01*
X61280Y-41725D01*
X61316Y-41671D01*
X61344Y-41713D01*
X65680Y-46049D01*
X65731Y-46083D01*
X65790Y-46095D01*
X66183Y-46095D01*
G54D10*
G36*
X67511Y-45987D02*
X67489Y-45982D01*
X67471Y-45982D01*
X67300Y-46016D01*
X67155Y-46113D01*
X67121Y-46165D01*
X67100Y-46134D01*
X66794Y-45828D01*
X66743Y-45794D01*
X66683Y-45782D01*
X65855Y-45782D01*
X61920Y-41847D01*
X61964Y-41856D01*
X62135Y-41822D01*
X62162Y-41804D01*
X64777Y-44419D01*
X64777Y-44419D01*
X64828Y-44453D01*
X64828Y-44453D01*
X64838Y-44455D01*
X64888Y-44465D01*
X65989Y-44465D01*
X67511Y-45987D01*
X67511Y-45987D01*
G37*
G54D20*
X67511Y-45987D02*
X67489Y-45982D01*
X67471Y-45982D01*
X67300Y-46016D01*
X67155Y-46113D01*
X67121Y-46165D01*
X67100Y-46134D01*
X66794Y-45828D01*
X66743Y-45794D01*
X66683Y-45782D01*
X65855Y-45782D01*
X61920Y-41847D01*
X61964Y-41856D01*
X62135Y-41822D01*
X62162Y-41804D01*
X64777Y-44419D01*
X64777Y-44419D01*
X64828Y-44453D01*
X64828Y-44453D01*
X64838Y-44455D01*
X64888Y-44465D01*
X65989Y-44465D01*
X67511Y-45987D01*
G54D10*
G36*
X71330Y-47428D02*
X71263Y-47768D01*
X71077Y-48046D01*
X71070Y-48050D01*
X71070Y-47954D01*
X71070Y-47911D01*
X71070Y-46927D01*
X71070Y-41655D01*
X71070Y-41612D01*
X71070Y-40628D01*
X71054Y-40589D01*
X71024Y-40559D01*
X70985Y-40543D01*
X70943Y-40543D01*
X69959Y-40543D01*
X69920Y-40559D01*
X69890Y-40589D01*
X69874Y-40628D01*
X69874Y-40670D01*
X69874Y-41655D01*
X69890Y-41694D01*
X69920Y-41723D01*
X69959Y-41740D01*
X70001Y-41740D01*
X70985Y-41740D01*
X71024Y-41723D01*
X71054Y-41694D01*
X71070Y-41655D01*
X71070Y-46927D01*
X71054Y-46888D01*
X71024Y-46858D01*
X70985Y-46842D01*
X70968Y-46842D01*
X70968Y-46323D01*
X70968Y-42258D01*
X69858Y-42258D01*
X69858Y-46323D01*
X70968Y-46323D01*
X70968Y-46842D01*
X70943Y-46842D01*
X69959Y-46842D01*
X69920Y-46858D01*
X69890Y-46888D01*
X69874Y-46927D01*
X69874Y-46969D01*
X69874Y-47954D01*
X69890Y-47993D01*
X69920Y-48023D01*
X69959Y-48039D01*
X70001Y-48039D01*
X70985Y-48039D01*
X71024Y-48023D01*
X71054Y-47993D01*
X71070Y-47954D01*
X71070Y-48050D01*
X70799Y-48231D01*
X70460Y-48299D01*
X69310Y-48299D01*
X69310Y-41362D01*
X69249Y-41211D01*
X69246Y-41207D01*
X69182Y-41179D01*
X69162Y-41199D01*
X69162Y-41160D01*
X69135Y-41095D01*
X68985Y-41032D01*
X68822Y-41031D01*
X68672Y-41092D01*
X68667Y-41095D01*
X68640Y-41160D01*
X68901Y-41421D01*
X69162Y-41160D01*
X69162Y-41199D01*
X68921Y-41440D01*
X69182Y-41702D01*
X69246Y-41674D01*
X69309Y-41524D01*
X69310Y-41362D01*
X69310Y-48299D01*
X69282Y-48299D01*
X69282Y-43365D01*
X69225Y-43225D01*
X69162Y-43162D01*
X69162Y-41721D01*
X68901Y-41460D01*
X68882Y-41479D01*
X68882Y-41440D01*
X68620Y-41179D01*
X68556Y-41207D01*
X68493Y-41357D01*
X68492Y-41519D01*
X68553Y-41670D01*
X68556Y-41674D01*
X68620Y-41702D01*
X68882Y-41440D01*
X68882Y-41479D01*
X68640Y-41721D01*
X68667Y-41786D01*
X68817Y-41849D01*
X68980Y-41850D01*
X69131Y-41788D01*
X69135Y-41786D01*
X69162Y-41721D01*
X69162Y-43162D01*
X69117Y-43117D01*
X68977Y-43059D01*
X68826Y-43059D01*
X68685Y-43117D01*
X68578Y-43224D01*
X68553Y-43284D01*
X66310Y-43284D01*
X66310Y-41362D01*
X66249Y-41211D01*
X66246Y-41207D01*
X66182Y-41179D01*
X66162Y-41199D01*
X66162Y-41160D01*
X66135Y-41095D01*
X65985Y-41032D01*
X65822Y-41031D01*
X65672Y-41092D01*
X65667Y-41095D01*
X65640Y-41160D01*
X65901Y-41421D01*
X66162Y-41160D01*
X66162Y-41199D01*
X65921Y-41440D01*
X66182Y-41702D01*
X66246Y-41674D01*
X66309Y-41524D01*
X66310Y-41362D01*
X66310Y-43284D01*
X66249Y-43284D01*
X66225Y-43225D01*
X66162Y-43162D01*
X66162Y-41721D01*
X65901Y-41460D01*
X65882Y-41479D01*
X65882Y-41440D01*
X65620Y-41179D01*
X65556Y-41207D01*
X65493Y-41357D01*
X65492Y-41519D01*
X65553Y-41670D01*
X65556Y-41674D01*
X65620Y-41702D01*
X65882Y-41440D01*
X65882Y-41479D01*
X65640Y-41721D01*
X65667Y-41786D01*
X65817Y-41849D01*
X65980Y-41850D01*
X66131Y-41788D01*
X66135Y-41786D01*
X66162Y-41721D01*
X66162Y-43162D01*
X66117Y-43117D01*
X65977Y-43059D01*
X65826Y-43059D01*
X65685Y-43117D01*
X65578Y-43224D01*
X65553Y-43284D01*
X64411Y-43284D01*
X64411Y-41410D01*
X64411Y-41270D01*
X64377Y-41099D01*
X64280Y-40954D01*
X64135Y-40857D01*
X63964Y-40823D01*
X63794Y-40857D01*
X63649Y-40954D01*
X63552Y-41099D01*
X63518Y-41270D01*
X63518Y-41410D01*
X63552Y-41580D01*
X63649Y-41725D01*
X63794Y-41822D01*
X63964Y-41856D01*
X64135Y-41822D01*
X64280Y-41725D01*
X64377Y-41580D01*
X64411Y-41410D01*
X64411Y-43284D01*
X64371Y-43284D01*
X62937Y-41851D01*
X62964Y-41856D01*
X63135Y-41822D01*
X63280Y-41725D01*
X63377Y-41580D01*
X63411Y-41410D01*
X63411Y-41270D01*
X63377Y-41099D01*
X63280Y-40954D01*
X63135Y-40857D01*
X62964Y-40823D01*
X62794Y-40857D01*
X62649Y-40954D01*
X62608Y-41016D01*
X62575Y-40967D01*
X62274Y-40665D01*
X62223Y-40631D01*
X62163Y-40619D01*
X55755Y-40619D01*
X55696Y-40631D01*
X55645Y-40665D01*
X55344Y-40966D01*
X55316Y-41008D01*
X55280Y-40954D01*
X55135Y-40857D01*
X54964Y-40823D01*
X54794Y-40857D01*
X54649Y-40954D01*
X54552Y-41099D01*
X54518Y-41270D01*
X54518Y-41410D01*
X54552Y-41580D01*
X54649Y-41725D01*
X54794Y-41822D01*
X54964Y-41856D01*
X55135Y-41822D01*
X55280Y-41725D01*
X55377Y-41580D01*
X55394Y-41496D01*
X55455Y-41496D01*
X55514Y-41484D01*
X55531Y-41473D01*
X55552Y-41580D01*
X55649Y-41725D01*
X55794Y-41822D01*
X55964Y-41856D01*
X56135Y-41822D01*
X56280Y-41725D01*
X56316Y-41671D01*
X56344Y-41713D01*
X58573Y-43942D01*
X58573Y-43942D01*
X58624Y-43976D01*
X58624Y-43976D01*
X58634Y-43978D01*
X58684Y-43988D01*
X62963Y-43988D01*
X66024Y-47049D01*
X66075Y-47083D01*
X66135Y-47095D01*
X66156Y-47095D01*
X66089Y-47161D01*
X66016Y-47331D01*
X66014Y-47341D01*
X66040Y-47415D01*
X66466Y-47415D01*
X66466Y-47407D01*
X66494Y-47407D01*
X66494Y-47415D01*
X66920Y-47415D01*
X66945Y-47341D01*
X66944Y-47331D01*
X66871Y-47161D01*
X66803Y-47095D01*
X67183Y-47095D01*
X67155Y-47113D01*
X67059Y-47258D01*
X67025Y-47429D01*
X67059Y-47599D01*
X67155Y-47744D01*
X67300Y-47841D01*
X67471Y-47875D01*
X67489Y-47875D01*
X67659Y-47841D01*
X67804Y-47744D01*
X67901Y-47599D01*
X67909Y-47559D01*
X67930Y-47573D01*
X67990Y-47585D01*
X68056Y-47585D01*
X68059Y-47599D01*
X68155Y-47744D01*
X68300Y-47841D01*
X68471Y-47875D01*
X68489Y-47875D01*
X68659Y-47841D01*
X68804Y-47744D01*
X68901Y-47599D01*
X68935Y-47429D01*
X68901Y-47258D01*
X68804Y-47113D01*
X68659Y-47016D01*
X68489Y-46982D01*
X68471Y-46982D01*
X68300Y-47016D01*
X68155Y-47113D01*
X68121Y-47165D01*
X68100Y-47134D01*
X67794Y-46828D01*
X67743Y-46794D01*
X67733Y-46792D01*
X67804Y-46744D01*
X67901Y-46599D01*
X67909Y-46559D01*
X67930Y-46573D01*
X67990Y-46585D01*
X68034Y-46585D01*
X68034Y-46790D01*
X68050Y-46829D01*
X68080Y-46859D01*
X68119Y-46875D01*
X68161Y-46875D01*
X68841Y-46875D01*
X68880Y-46859D01*
X68910Y-46829D01*
X68926Y-46790D01*
X68926Y-46747D01*
X68926Y-46067D01*
X68910Y-46028D01*
X68880Y-45999D01*
X68841Y-45982D01*
X68799Y-45982D01*
X68119Y-45982D01*
X68080Y-45999D01*
X68050Y-46028D01*
X68034Y-46067D01*
X68034Y-46068D01*
X66164Y-44198D01*
X66113Y-44164D01*
X66053Y-44152D01*
X64952Y-44152D01*
X64397Y-43597D01*
X65553Y-43597D01*
X65578Y-43656D01*
X65685Y-43764D01*
X65825Y-43822D01*
X65977Y-43822D01*
X66117Y-43764D01*
X66224Y-43657D01*
X66249Y-43597D01*
X68553Y-43597D01*
X68578Y-43656D01*
X68685Y-43764D01*
X68825Y-43822D01*
X68977Y-43822D01*
X69117Y-43764D01*
X69224Y-43657D01*
X69282Y-43517D01*
X69282Y-43365D01*
X69282Y-48299D01*
X66945Y-48299D01*
X66945Y-47516D01*
X66920Y-47442D01*
X66494Y-47442D01*
X66494Y-47869D01*
X66568Y-47894D01*
X66739Y-47825D01*
X66871Y-47696D01*
X66944Y-47526D01*
X66945Y-47516D01*
X66945Y-48299D01*
X66466Y-48299D01*
X66466Y-47869D01*
X66466Y-47442D01*
X66040Y-47442D01*
X66014Y-47516D01*
X66016Y-47526D01*
X66089Y-47696D01*
X66221Y-47825D01*
X66392Y-47894D01*
X66466Y-47869D01*
X66466Y-48299D01*
X64411Y-48299D01*
X64411Y-47414D01*
X64411Y-47274D01*
X64377Y-47103D01*
X64280Y-46958D01*
X64135Y-46861D01*
X63964Y-46827D01*
X63794Y-46861D01*
X63649Y-46958D01*
X63552Y-47103D01*
X63518Y-47274D01*
X63518Y-47414D01*
X63552Y-47584D01*
X63649Y-47729D01*
X63794Y-47826D01*
X63964Y-47860D01*
X64135Y-47826D01*
X64280Y-47729D01*
X64377Y-47584D01*
X64411Y-47414D01*
X64411Y-48299D01*
X63411Y-48299D01*
X63411Y-47414D01*
X63411Y-47274D01*
X63377Y-47103D01*
X63280Y-46958D01*
X63135Y-46861D01*
X62964Y-46827D01*
X62794Y-46861D01*
X62649Y-46958D01*
X62552Y-47103D01*
X62518Y-47274D01*
X62518Y-47414D01*
X62552Y-47584D01*
X62649Y-47729D01*
X62794Y-47826D01*
X62964Y-47860D01*
X63135Y-47826D01*
X63280Y-47729D01*
X63377Y-47584D01*
X63411Y-47414D01*
X63411Y-48299D01*
X62411Y-48299D01*
X62411Y-47414D01*
X62411Y-47274D01*
X62377Y-47103D01*
X62280Y-46958D01*
X62135Y-46861D01*
X61964Y-46827D01*
X61794Y-46861D01*
X61649Y-46958D01*
X61552Y-47103D01*
X61518Y-47274D01*
X61518Y-47414D01*
X61552Y-47584D01*
X61649Y-47729D01*
X61794Y-47826D01*
X61964Y-47860D01*
X62135Y-47826D01*
X62280Y-47729D01*
X62377Y-47584D01*
X62411Y-47414D01*
X62411Y-48299D01*
X61411Y-48299D01*
X61411Y-47414D01*
X61411Y-47274D01*
X61377Y-47103D01*
X61280Y-46958D01*
X61135Y-46861D01*
X60964Y-46827D01*
X60794Y-46861D01*
X60649Y-46958D01*
X60552Y-47103D01*
X60518Y-47274D01*
X60518Y-47414D01*
X60552Y-47584D01*
X60649Y-47729D01*
X60794Y-47826D01*
X60964Y-47860D01*
X61135Y-47826D01*
X61280Y-47729D01*
X61377Y-47584D01*
X61411Y-47414D01*
X61411Y-48299D01*
X60411Y-48299D01*
X60411Y-47414D01*
X60411Y-47274D01*
X60377Y-47103D01*
X60280Y-46958D01*
X60135Y-46861D01*
X59964Y-46827D01*
X59794Y-46861D01*
X59649Y-46958D01*
X59552Y-47103D01*
X59518Y-47274D01*
X59518Y-47414D01*
X59552Y-47584D01*
X59649Y-47729D01*
X59794Y-47826D01*
X59964Y-47860D01*
X60135Y-47826D01*
X60280Y-47729D01*
X60377Y-47584D01*
X60411Y-47414D01*
X60411Y-48299D01*
X59411Y-48299D01*
X59411Y-47414D01*
X59411Y-47274D01*
X59377Y-47103D01*
X59280Y-46958D01*
X59135Y-46861D01*
X58964Y-46827D01*
X58794Y-46861D01*
X58649Y-46958D01*
X58552Y-47103D01*
X58518Y-47274D01*
X58518Y-47414D01*
X58552Y-47584D01*
X58649Y-47729D01*
X58794Y-47826D01*
X58964Y-47860D01*
X59135Y-47826D01*
X59280Y-47729D01*
X59377Y-47584D01*
X59411Y-47414D01*
X59411Y-48299D01*
X58411Y-48299D01*
X58411Y-47414D01*
X58411Y-47274D01*
X58377Y-47103D01*
X58280Y-46958D01*
X58135Y-46861D01*
X57964Y-46827D01*
X57794Y-46861D01*
X57649Y-46958D01*
X57552Y-47103D01*
X57518Y-47274D01*
X57518Y-47414D01*
X57552Y-47584D01*
X57649Y-47729D01*
X57794Y-47826D01*
X57964Y-47860D01*
X58135Y-47826D01*
X58280Y-47729D01*
X58377Y-47584D01*
X58411Y-47414D01*
X58411Y-48299D01*
X57411Y-48299D01*
X57411Y-47414D01*
X57411Y-47274D01*
X57377Y-47103D01*
X57280Y-46958D01*
X57135Y-46861D01*
X56964Y-46827D01*
X56794Y-46861D01*
X56649Y-46958D01*
X56552Y-47103D01*
X56518Y-47274D01*
X56518Y-47414D01*
X56552Y-47584D01*
X56649Y-47729D01*
X56794Y-47826D01*
X56964Y-47860D01*
X57135Y-47826D01*
X57280Y-47729D01*
X57377Y-47584D01*
X57411Y-47414D01*
X57411Y-48299D01*
X56438Y-48299D01*
X56438Y-47417D01*
X56438Y-47357D01*
X56438Y-47330D01*
X56438Y-47270D01*
X56397Y-47090D01*
X56290Y-46939D01*
X56133Y-46841D01*
X56052Y-46818D01*
X55978Y-46843D01*
X55978Y-47330D01*
X56438Y-47330D01*
X56438Y-47357D01*
X55978Y-47357D01*
X55978Y-47844D01*
X56052Y-47869D01*
X56133Y-47847D01*
X56290Y-47748D01*
X56397Y-47598D01*
X56438Y-47417D01*
X56438Y-48299D01*
X55951Y-48299D01*
X55951Y-47844D01*
X55951Y-47357D01*
X55951Y-47330D01*
X55951Y-46843D01*
X55877Y-46818D01*
X55796Y-46841D01*
X55639Y-46939D01*
X55532Y-47090D01*
X55491Y-47270D01*
X55491Y-47330D01*
X55951Y-47330D01*
X55951Y-47357D01*
X55491Y-47357D01*
X55491Y-47417D01*
X55532Y-47598D01*
X55639Y-47748D01*
X55796Y-47847D01*
X55877Y-47869D01*
X55951Y-47844D01*
X55951Y-48299D01*
X55438Y-48299D01*
X55438Y-47417D01*
X55438Y-47357D01*
X55438Y-47330D01*
X55438Y-47270D01*
X55397Y-47090D01*
X55290Y-46939D01*
X55133Y-46841D01*
X55052Y-46818D01*
X54978Y-46843D01*
X54978Y-47330D01*
X55438Y-47330D01*
X55438Y-47357D01*
X54978Y-47357D01*
X54978Y-47844D01*
X55052Y-47869D01*
X55133Y-47847D01*
X55290Y-47748D01*
X55397Y-47598D01*
X55438Y-47417D01*
X55438Y-48299D01*
X54951Y-48299D01*
X54951Y-47844D01*
X54951Y-47357D01*
X54951Y-47330D01*
X54951Y-46843D01*
X54877Y-46818D01*
X54796Y-46841D01*
X54639Y-46939D01*
X54532Y-47090D01*
X54491Y-47270D01*
X54491Y-47330D01*
X54951Y-47330D01*
X54951Y-47357D01*
X54491Y-47357D01*
X54491Y-47417D01*
X54532Y-47598D01*
X54639Y-47748D01*
X54796Y-47847D01*
X54877Y-47869D01*
X54951Y-47844D01*
X54951Y-48299D01*
X54438Y-48299D01*
X54438Y-41413D01*
X54438Y-41353D01*
X54438Y-41326D01*
X54438Y-41266D01*
X54397Y-41086D01*
X54290Y-40935D01*
X54133Y-40837D01*
X54052Y-40814D01*
X53978Y-40839D01*
X53978Y-41326D01*
X54438Y-41326D01*
X54438Y-41353D01*
X53978Y-41353D01*
X53978Y-41840D01*
X54052Y-41865D01*
X54133Y-41843D01*
X54290Y-41744D01*
X54397Y-41594D01*
X54438Y-41413D01*
X54438Y-48299D01*
X54411Y-48299D01*
X54411Y-47414D01*
X54411Y-47274D01*
X54377Y-47103D01*
X54280Y-46958D01*
X54135Y-46861D01*
X53964Y-46827D01*
X53951Y-46830D01*
X53951Y-41840D01*
X53951Y-41353D01*
X53951Y-41326D01*
X53951Y-40839D01*
X53877Y-40814D01*
X53796Y-40837D01*
X53639Y-40935D01*
X53532Y-41086D01*
X53491Y-41266D01*
X53491Y-41326D01*
X53951Y-41326D01*
X53951Y-41353D01*
X53491Y-41353D01*
X53491Y-41413D01*
X53532Y-41594D01*
X53639Y-41744D01*
X53796Y-41843D01*
X53877Y-41865D01*
X53951Y-41840D01*
X53951Y-46830D01*
X53794Y-46861D01*
X53649Y-46958D01*
X53552Y-47103D01*
X53518Y-47274D01*
X53518Y-47414D01*
X53552Y-47584D01*
X53649Y-47729D01*
X53794Y-47826D01*
X53964Y-47860D01*
X54135Y-47826D01*
X54280Y-47729D01*
X54377Y-47584D01*
X54411Y-47414D01*
X54411Y-48299D01*
X53411Y-48299D01*
X53411Y-47765D01*
X53411Y-47722D01*
X53411Y-46922D01*
X53411Y-41410D01*
X53411Y-41270D01*
X53377Y-41099D01*
X53280Y-40954D01*
X53135Y-40857D01*
X52964Y-40823D01*
X52794Y-40857D01*
X52649Y-40954D01*
X52552Y-41099D01*
X52518Y-41270D01*
X52518Y-41410D01*
X52552Y-41580D01*
X52649Y-41725D01*
X52794Y-41822D01*
X52964Y-41856D01*
X53135Y-41822D01*
X53280Y-41725D01*
X53377Y-41580D01*
X53411Y-41410D01*
X53411Y-46922D01*
X53395Y-46883D01*
X53365Y-46853D01*
X53326Y-46837D01*
X53283Y-46837D01*
X52603Y-46837D01*
X52564Y-46853D01*
X52534Y-46883D01*
X52518Y-46922D01*
X52518Y-46965D01*
X52518Y-47765D01*
X52534Y-47804D01*
X52564Y-47834D01*
X52603Y-47850D01*
X52646Y-47850D01*
X53326Y-47850D01*
X53365Y-47834D01*
X53395Y-47804D01*
X53411Y-47765D01*
X53411Y-48299D01*
X51582Y-48299D01*
X51582Y-47954D01*
X51582Y-47911D01*
X51582Y-46927D01*
X51582Y-41655D01*
X51582Y-41612D01*
X51582Y-40628D01*
X51566Y-40589D01*
X51536Y-40559D01*
X51497Y-40543D01*
X51455Y-40543D01*
X50470Y-40543D01*
X50431Y-40559D01*
X50402Y-40589D01*
X50385Y-40628D01*
X50385Y-40670D01*
X50385Y-41655D01*
X50402Y-41694D01*
X50431Y-41723D01*
X50470Y-41740D01*
X50513Y-41740D01*
X51497Y-41740D01*
X51536Y-41723D01*
X51566Y-41694D01*
X51582Y-41655D01*
X51582Y-46927D01*
X51566Y-46888D01*
X51536Y-46858D01*
X51497Y-46842D01*
X51455Y-46842D01*
X50470Y-46842D01*
X50431Y-46858D01*
X50402Y-46888D01*
X50385Y-46927D01*
X50385Y-46969D01*
X50385Y-47954D01*
X50402Y-47993D01*
X50431Y-48023D01*
X50470Y-48039D01*
X50513Y-48039D01*
X51497Y-48039D01*
X51536Y-48023D01*
X51566Y-47993D01*
X51582Y-47954D01*
X51582Y-48299D01*
X50996Y-48299D01*
X50656Y-48231D01*
X50379Y-48046D01*
X50193Y-47768D01*
X50125Y-47428D01*
X50125Y-41535D01*
X50125Y-41154D01*
X50193Y-40814D01*
X50379Y-40536D01*
X50656Y-40351D01*
X50996Y-40283D01*
X70460Y-40283D01*
X70799Y-40351D01*
X71077Y-40536D01*
X71263Y-40814D01*
X71330Y-41154D01*
X71330Y-41535D01*
X71330Y-47428D01*
X71330Y-47428D01*
G37*
G54D20*
X71330Y-47428D02*
X71263Y-47768D01*
X71077Y-48046D01*
X71070Y-48050D01*
X71070Y-47954D01*
X71070Y-47911D01*
X71070Y-46927D01*
X71070Y-41655D01*
X71070Y-41612D01*
X71070Y-40628D01*
X71054Y-40589D01*
X71024Y-40559D01*
X70985Y-40543D01*
X70943Y-40543D01*
X69959Y-40543D01*
X69920Y-40559D01*
X69890Y-40589D01*
X69874Y-40628D01*
X69874Y-40670D01*
X69874Y-41655D01*
X69890Y-41694D01*
X69920Y-41723D01*
X69959Y-41740D01*
X70001Y-41740D01*
X70985Y-41740D01*
X71024Y-41723D01*
X71054Y-41694D01*
X71070Y-41655D01*
X71070Y-46927D01*
X71054Y-46888D01*
X71024Y-46858D01*
X70985Y-46842D01*
X70968Y-46842D01*
X70968Y-46323D01*
X70968Y-42258D01*
X69858Y-42258D01*
X69858Y-46323D01*
X70968Y-46323D01*
X70968Y-46842D01*
X70943Y-46842D01*
X69959Y-46842D01*
X69920Y-46858D01*
X69890Y-46888D01*
X69874Y-46927D01*
X69874Y-46969D01*
X69874Y-47954D01*
X69890Y-47993D01*
X69920Y-48023D01*
X69959Y-48039D01*
X70001Y-48039D01*
X70985Y-48039D01*
X71024Y-48023D01*
X71054Y-47993D01*
X71070Y-47954D01*
X71070Y-48050D01*
X70799Y-48231D01*
X70460Y-48299D01*
X69310Y-48299D01*
X69310Y-41362D01*
X69249Y-41211D01*
X69246Y-41207D01*
X69182Y-41179D01*
X69162Y-41199D01*
X69162Y-41160D01*
X69135Y-41095D01*
X68985Y-41032D01*
X68822Y-41031D01*
X68672Y-41092D01*
X68667Y-41095D01*
X68640Y-41160D01*
X68901Y-41421D01*
X69162Y-41160D01*
X69162Y-41199D01*
X68921Y-41440D01*
X69182Y-41702D01*
X69246Y-41674D01*
X69309Y-41524D01*
X69310Y-41362D01*
X69310Y-48299D01*
X69282Y-48299D01*
X69282Y-43365D01*
X69225Y-43225D01*
X69162Y-43162D01*
X69162Y-41721D01*
X68901Y-41460D01*
X68882Y-41479D01*
X68882Y-41440D01*
X68620Y-41179D01*
X68556Y-41207D01*
X68493Y-41357D01*
X68492Y-41519D01*
X68553Y-41670D01*
X68556Y-41674D01*
X68620Y-41702D01*
X68882Y-41440D01*
X68882Y-41479D01*
X68640Y-41721D01*
X68667Y-41786D01*
X68817Y-41849D01*
X68980Y-41850D01*
X69131Y-41788D01*
X69135Y-41786D01*
X69162Y-41721D01*
X69162Y-43162D01*
X69117Y-43117D01*
X68977Y-43059D01*
X68826Y-43059D01*
X68685Y-43117D01*
X68578Y-43224D01*
X68553Y-43284D01*
X66310Y-43284D01*
X66310Y-41362D01*
X66249Y-41211D01*
X66246Y-41207D01*
X66182Y-41179D01*
X66162Y-41199D01*
X66162Y-41160D01*
X66135Y-41095D01*
X65985Y-41032D01*
X65822Y-41031D01*
X65672Y-41092D01*
X65667Y-41095D01*
X65640Y-41160D01*
X65901Y-41421D01*
X66162Y-41160D01*
X66162Y-41199D01*
X65921Y-41440D01*
X66182Y-41702D01*
X66246Y-41674D01*
X66309Y-41524D01*
X66310Y-41362D01*
X66310Y-43284D01*
X66249Y-43284D01*
X66225Y-43225D01*
X66162Y-43162D01*
X66162Y-41721D01*
X65901Y-41460D01*
X65882Y-41479D01*
X65882Y-41440D01*
X65620Y-41179D01*
X65556Y-41207D01*
X65493Y-41357D01*
X65492Y-41519D01*
X65553Y-41670D01*
X65556Y-41674D01*
X65620Y-41702D01*
X65882Y-41440D01*
X65882Y-41479D01*
X65640Y-41721D01*
X65667Y-41786D01*
X65817Y-41849D01*
X65980Y-41850D01*
X66131Y-41788D01*
X66135Y-41786D01*
X66162Y-41721D01*
X66162Y-43162D01*
X66117Y-43117D01*
X65977Y-43059D01*
X65826Y-43059D01*
X65685Y-43117D01*
X65578Y-43224D01*
X65553Y-43284D01*
X64411Y-43284D01*
X64411Y-41410D01*
X64411Y-41270D01*
X64377Y-41099D01*
X64280Y-40954D01*
X64135Y-40857D01*
X63964Y-40823D01*
X63794Y-40857D01*
X63649Y-40954D01*
X63552Y-41099D01*
X63518Y-41270D01*
X63518Y-41410D01*
X63552Y-41580D01*
X63649Y-41725D01*
X63794Y-41822D01*
X63964Y-41856D01*
X64135Y-41822D01*
X64280Y-41725D01*
X64377Y-41580D01*
X64411Y-41410D01*
X64411Y-43284D01*
X64371Y-43284D01*
X62937Y-41851D01*
X62964Y-41856D01*
X63135Y-41822D01*
X63280Y-41725D01*
X63377Y-41580D01*
X63411Y-41410D01*
X63411Y-41270D01*
X63377Y-41099D01*
X63280Y-40954D01*
X63135Y-40857D01*
X62964Y-40823D01*
X62794Y-40857D01*
X62649Y-40954D01*
X62608Y-41016D01*
X62575Y-40967D01*
X62274Y-40665D01*
X62223Y-40631D01*
X62163Y-40619D01*
X55755Y-40619D01*
X55696Y-40631D01*
X55645Y-40665D01*
X55344Y-40966D01*
X55316Y-41008D01*
X55280Y-40954D01*
X55135Y-40857D01*
X54964Y-40823D01*
X54794Y-40857D01*
X54649Y-40954D01*
X54552Y-41099D01*
X54518Y-41270D01*
X54518Y-41410D01*
X54552Y-41580D01*
X54649Y-41725D01*
X54794Y-41822D01*
X54964Y-41856D01*
X55135Y-41822D01*
X55280Y-41725D01*
X55377Y-41580D01*
X55394Y-41496D01*
X55455Y-41496D01*
X55514Y-41484D01*
X55531Y-41473D01*
X55552Y-41580D01*
X55649Y-41725D01*
X55794Y-41822D01*
X55964Y-41856D01*
X56135Y-41822D01*
X56280Y-41725D01*
X56316Y-41671D01*
X56344Y-41713D01*
X58573Y-43942D01*
X58573Y-43942D01*
X58624Y-43976D01*
X58624Y-43976D01*
X58634Y-43978D01*
X58684Y-43988D01*
X62963Y-43988D01*
X66024Y-47049D01*
X66075Y-47083D01*
X66135Y-47095D01*
X66156Y-47095D01*
X66089Y-47161D01*
X66016Y-47331D01*
X66014Y-47341D01*
X66040Y-47415D01*
X66466Y-47415D01*
X66466Y-47407D01*
X66494Y-47407D01*
X66494Y-47415D01*
X66920Y-47415D01*
X66945Y-47341D01*
X66944Y-47331D01*
X66871Y-47161D01*
X66803Y-47095D01*
X67183Y-47095D01*
X67155Y-47113D01*
X67059Y-47258D01*
X67025Y-47429D01*
X67059Y-47599D01*
X67155Y-47744D01*
X67300Y-47841D01*
X67471Y-47875D01*
X67489Y-47875D01*
X67659Y-47841D01*
X67804Y-47744D01*
X67901Y-47599D01*
X67909Y-47559D01*
X67930Y-47573D01*
X67990Y-47585D01*
X68056Y-47585D01*
X68059Y-47599D01*
X68155Y-47744D01*
X68300Y-47841D01*
X68471Y-47875D01*
X68489Y-47875D01*
X68659Y-47841D01*
X68804Y-47744D01*
X68901Y-47599D01*
X68935Y-47429D01*
X68901Y-47258D01*
X68804Y-47113D01*
X68659Y-47016D01*
X68489Y-46982D01*
X68471Y-46982D01*
X68300Y-47016D01*
X68155Y-47113D01*
X68121Y-47165D01*
X68100Y-47134D01*
X67794Y-46828D01*
X67743Y-46794D01*
X67733Y-46792D01*
X67804Y-46744D01*
X67901Y-46599D01*
X67909Y-46559D01*
X67930Y-46573D01*
X67990Y-46585D01*
X68034Y-46585D01*
X68034Y-46790D01*
X68050Y-46829D01*
X68080Y-46859D01*
X68119Y-46875D01*
X68161Y-46875D01*
X68841Y-46875D01*
X68880Y-46859D01*
X68910Y-46829D01*
X68926Y-46790D01*
X68926Y-46747D01*
X68926Y-46067D01*
X68910Y-46028D01*
X68880Y-45999D01*
X68841Y-45982D01*
X68799Y-45982D01*
X68119Y-45982D01*
X68080Y-45999D01*
X68050Y-46028D01*
X68034Y-46067D01*
X68034Y-46068D01*
X66164Y-44198D01*
X66113Y-44164D01*
X66053Y-44152D01*
X64952Y-44152D01*
X64397Y-43597D01*
X65553Y-43597D01*
X65578Y-43656D01*
X65685Y-43764D01*
X65825Y-43822D01*
X65977Y-43822D01*
X66117Y-43764D01*
X66224Y-43657D01*
X66249Y-43597D01*
X68553Y-43597D01*
X68578Y-43656D01*
X68685Y-43764D01*
X68825Y-43822D01*
X68977Y-43822D01*
X69117Y-43764D01*
X69224Y-43657D01*
X69282Y-43517D01*
X69282Y-43365D01*
X69282Y-48299D01*
X66945Y-48299D01*
X66945Y-47516D01*
X66920Y-47442D01*
X66494Y-47442D01*
X66494Y-47869D01*
X66568Y-47894D01*
X66739Y-47825D01*
X66871Y-47696D01*
X66944Y-47526D01*
X66945Y-47516D01*
X66945Y-48299D01*
X66466Y-48299D01*
X66466Y-47869D01*
X66466Y-47442D01*
X66040Y-47442D01*
X66014Y-47516D01*
X66016Y-47526D01*
X66089Y-47696D01*
X66221Y-47825D01*
X66392Y-47894D01*
X66466Y-47869D01*
X66466Y-48299D01*
X64411Y-48299D01*
X64411Y-47414D01*
X64411Y-47274D01*
X64377Y-47103D01*
X64280Y-46958D01*
X64135Y-46861D01*
X63964Y-46827D01*
X63794Y-46861D01*
X63649Y-46958D01*
X63552Y-47103D01*
X63518Y-47274D01*
X63518Y-47414D01*
X63552Y-47584D01*
X63649Y-47729D01*
X63794Y-47826D01*
X63964Y-47860D01*
X64135Y-47826D01*
X64280Y-47729D01*
X64377Y-47584D01*
X64411Y-47414D01*
X64411Y-48299D01*
X63411Y-48299D01*
X63411Y-47414D01*
X63411Y-47274D01*
X63377Y-47103D01*
X63280Y-46958D01*
X63135Y-46861D01*
X62964Y-46827D01*
X62794Y-46861D01*
X62649Y-46958D01*
X62552Y-47103D01*
X62518Y-47274D01*
X62518Y-47414D01*
X62552Y-47584D01*
X62649Y-47729D01*
X62794Y-47826D01*
X62964Y-47860D01*
X63135Y-47826D01*
X63280Y-47729D01*
X63377Y-47584D01*
X63411Y-47414D01*
X63411Y-48299D01*
X62411Y-48299D01*
X62411Y-47414D01*
X62411Y-47274D01*
X62377Y-47103D01*
X62280Y-46958D01*
X62135Y-46861D01*
X61964Y-46827D01*
X61794Y-46861D01*
X61649Y-46958D01*
X61552Y-47103D01*
X61518Y-47274D01*
X61518Y-47414D01*
X61552Y-47584D01*
X61649Y-47729D01*
X61794Y-47826D01*
X61964Y-47860D01*
X62135Y-47826D01*
X62280Y-47729D01*
X62377Y-47584D01*
X62411Y-47414D01*
X62411Y-48299D01*
X61411Y-48299D01*
X61411Y-47414D01*
X61411Y-47274D01*
X61377Y-47103D01*
X61280Y-46958D01*
X61135Y-46861D01*
X60964Y-46827D01*
X60794Y-46861D01*
X60649Y-46958D01*
X60552Y-47103D01*
X60518Y-47274D01*
X60518Y-47414D01*
X60552Y-47584D01*
X60649Y-47729D01*
X60794Y-47826D01*
X60964Y-47860D01*
X61135Y-47826D01*
X61280Y-47729D01*
X61377Y-47584D01*
X61411Y-47414D01*
X61411Y-48299D01*
X60411Y-48299D01*
X60411Y-47414D01*
X60411Y-47274D01*
X60377Y-47103D01*
X60280Y-46958D01*
X60135Y-46861D01*
X59964Y-46827D01*
X59794Y-46861D01*
X59649Y-46958D01*
X59552Y-47103D01*
X59518Y-47274D01*
X59518Y-47414D01*
X59552Y-47584D01*
X59649Y-47729D01*
X59794Y-47826D01*
X59964Y-47860D01*
X60135Y-47826D01*
X60280Y-47729D01*
X60377Y-47584D01*
X60411Y-47414D01*
X60411Y-48299D01*
X59411Y-48299D01*
X59411Y-47414D01*
X59411Y-47274D01*
X59377Y-47103D01*
X59280Y-46958D01*
X59135Y-46861D01*
X58964Y-46827D01*
X58794Y-46861D01*
X58649Y-46958D01*
X58552Y-47103D01*
X58518Y-47274D01*
X58518Y-47414D01*
X58552Y-47584D01*
X58649Y-47729D01*
X58794Y-47826D01*
X58964Y-47860D01*
X59135Y-47826D01*
X59280Y-47729D01*
X59377Y-47584D01*
X59411Y-47414D01*
X59411Y-48299D01*
X58411Y-48299D01*
X58411Y-47414D01*
X58411Y-47274D01*
X58377Y-47103D01*
X58280Y-46958D01*
X58135Y-46861D01*
X57964Y-46827D01*
X57794Y-46861D01*
X57649Y-46958D01*
X57552Y-47103D01*
X57518Y-47274D01*
X57518Y-47414D01*
X57552Y-47584D01*
X57649Y-47729D01*
X57794Y-47826D01*
X57964Y-47860D01*
X58135Y-47826D01*
X58280Y-47729D01*
X58377Y-47584D01*
X58411Y-47414D01*
X58411Y-48299D01*
X57411Y-48299D01*
X57411Y-47414D01*
X57411Y-47274D01*
X57377Y-47103D01*
X57280Y-46958D01*
X57135Y-46861D01*
X56964Y-46827D01*
X56794Y-46861D01*
X56649Y-46958D01*
X56552Y-47103D01*
X56518Y-47274D01*
X56518Y-47414D01*
X56552Y-47584D01*
X56649Y-47729D01*
X56794Y-47826D01*
X56964Y-47860D01*
X57135Y-47826D01*
X57280Y-47729D01*
X57377Y-47584D01*
X57411Y-47414D01*
X57411Y-48299D01*
X56438Y-48299D01*
X56438Y-47417D01*
X56438Y-47357D01*
X56438Y-47330D01*
X56438Y-47270D01*
X56397Y-47090D01*
X56290Y-46939D01*
X56133Y-46841D01*
X56052Y-46818D01*
X55978Y-46843D01*
X55978Y-47330D01*
X56438Y-47330D01*
X56438Y-47357D01*
X55978Y-47357D01*
X55978Y-47844D01*
X56052Y-47869D01*
X56133Y-47847D01*
X56290Y-47748D01*
X56397Y-47598D01*
X56438Y-47417D01*
X56438Y-48299D01*
X55951Y-48299D01*
X55951Y-47844D01*
X55951Y-47357D01*
X55951Y-47330D01*
X55951Y-46843D01*
X55877Y-46818D01*
X55796Y-46841D01*
X55639Y-46939D01*
X55532Y-47090D01*
X55491Y-47270D01*
X55491Y-47330D01*
X55951Y-47330D01*
X55951Y-47357D01*
X55491Y-47357D01*
X55491Y-47417D01*
X55532Y-47598D01*
X55639Y-47748D01*
X55796Y-47847D01*
X55877Y-47869D01*
X55951Y-47844D01*
X55951Y-48299D01*
X55438Y-48299D01*
X55438Y-47417D01*
X55438Y-47357D01*
X55438Y-47330D01*
X55438Y-47270D01*
X55397Y-47090D01*
X55290Y-46939D01*
X55133Y-46841D01*
X55052Y-46818D01*
X54978Y-46843D01*
X54978Y-47330D01*
X55438Y-47330D01*
X55438Y-47357D01*
X54978Y-47357D01*
X54978Y-47844D01*
X55052Y-47869D01*
X55133Y-47847D01*
X55290Y-47748D01*
X55397Y-47598D01*
X55438Y-47417D01*
X55438Y-48299D01*
X54951Y-48299D01*
X54951Y-47844D01*
X54951Y-47357D01*
X54951Y-47330D01*
X54951Y-46843D01*
X54877Y-46818D01*
X54796Y-46841D01*
X54639Y-46939D01*
X54532Y-47090D01*
X54491Y-47270D01*
X54491Y-47330D01*
X54951Y-47330D01*
X54951Y-47357D01*
X54491Y-47357D01*
X54491Y-47417D01*
X54532Y-47598D01*
X54639Y-47748D01*
X54796Y-47847D01*
X54877Y-47869D01*
X54951Y-47844D01*
X54951Y-48299D01*
X54438Y-48299D01*
X54438Y-41413D01*
X54438Y-41353D01*
X54438Y-41326D01*
X54438Y-41266D01*
X54397Y-41086D01*
X54290Y-40935D01*
X54133Y-40837D01*
X54052Y-40814D01*
X53978Y-40839D01*
X53978Y-41326D01*
X54438Y-41326D01*
X54438Y-41353D01*
X53978Y-41353D01*
X53978Y-41840D01*
X54052Y-41865D01*
X54133Y-41843D01*
X54290Y-41744D01*
X54397Y-41594D01*
X54438Y-41413D01*
X54438Y-48299D01*
X54411Y-48299D01*
X54411Y-47414D01*
X54411Y-47274D01*
X54377Y-47103D01*
X54280Y-46958D01*
X54135Y-46861D01*
X53964Y-46827D01*
X53951Y-46830D01*
X53951Y-41840D01*
X53951Y-41353D01*
X53951Y-41326D01*
X53951Y-40839D01*
X53877Y-40814D01*
X53796Y-40837D01*
X53639Y-40935D01*
X53532Y-41086D01*
X53491Y-41266D01*
X53491Y-41326D01*
X53951Y-41326D01*
X53951Y-41353D01*
X53491Y-41353D01*
X53491Y-41413D01*
X53532Y-41594D01*
X53639Y-41744D01*
X53796Y-41843D01*
X53877Y-41865D01*
X53951Y-41840D01*
X53951Y-46830D01*
X53794Y-46861D01*
X53649Y-46958D01*
X53552Y-47103D01*
X53518Y-47274D01*
X53518Y-47414D01*
X53552Y-47584D01*
X53649Y-47729D01*
X53794Y-47826D01*
X53964Y-47860D01*
X54135Y-47826D01*
X54280Y-47729D01*
X54377Y-47584D01*
X54411Y-47414D01*
X54411Y-48299D01*
X53411Y-48299D01*
X53411Y-47765D01*
X53411Y-47722D01*
X53411Y-46922D01*
X53411Y-41410D01*
X53411Y-41270D01*
X53377Y-41099D01*
X53280Y-40954D01*
X53135Y-40857D01*
X52964Y-40823D01*
X52794Y-40857D01*
X52649Y-40954D01*
X52552Y-41099D01*
X52518Y-41270D01*
X52518Y-41410D01*
X52552Y-41580D01*
X52649Y-41725D01*
X52794Y-41822D01*
X52964Y-41856D01*
X53135Y-41822D01*
X53280Y-41725D01*
X53377Y-41580D01*
X53411Y-41410D01*
X53411Y-46922D01*
X53395Y-46883D01*
X53365Y-46853D01*
X53326Y-46837D01*
X53283Y-46837D01*
X52603Y-46837D01*
X52564Y-46853D01*
X52534Y-46883D01*
X52518Y-46922D01*
X52518Y-46965D01*
X52518Y-47765D01*
X52534Y-47804D01*
X52564Y-47834D01*
X52603Y-47850D01*
X52646Y-47850D01*
X53326Y-47850D01*
X53365Y-47834D01*
X53395Y-47804D01*
X53411Y-47765D01*
X53411Y-48299D01*
X51582Y-48299D01*
X51582Y-47954D01*
X51582Y-47911D01*
X51582Y-46927D01*
X51582Y-41655D01*
X51582Y-41612D01*
X51582Y-40628D01*
X51566Y-40589D01*
X51536Y-40559D01*
X51497Y-40543D01*
X51455Y-40543D01*
X50470Y-40543D01*
X50431Y-40559D01*
X50402Y-40589D01*
X50385Y-40628D01*
X50385Y-40670D01*
X50385Y-41655D01*
X50402Y-41694D01*
X50431Y-41723D01*
X50470Y-41740D01*
X50513Y-41740D01*
X51497Y-41740D01*
X51536Y-41723D01*
X51566Y-41694D01*
X51582Y-41655D01*
X51582Y-46927D01*
X51566Y-46888D01*
X51536Y-46858D01*
X51497Y-46842D01*
X51455Y-46842D01*
X50470Y-46842D01*
X50431Y-46858D01*
X50402Y-46888D01*
X50385Y-46927D01*
X50385Y-46969D01*
X50385Y-47954D01*
X50402Y-47993D01*
X50431Y-48023D01*
X50470Y-48039D01*
X50513Y-48039D01*
X51497Y-48039D01*
X51536Y-48023D01*
X51566Y-47993D01*
X51582Y-47954D01*
X51582Y-48299D01*
X50996Y-48299D01*
X50656Y-48231D01*
X50379Y-48046D01*
X50193Y-47768D01*
X50125Y-47428D01*
X50125Y-41535D01*
X50125Y-41154D01*
X50193Y-40814D01*
X50379Y-40536D01*
X50656Y-40351D01*
X50996Y-40283D01*
X70460Y-40283D01*
X70799Y-40351D01*
X71077Y-40536D01*
X71263Y-40814D01*
X71330Y-41154D01*
X71330Y-41535D01*
X71330Y-47428D01*
M02*
