%FSLAX34Y34*%
G04 Gerber Fmt 3.4, Leading zero omitted, Abs format*
G04 (created by PCBNEW (2014-03-19 BZR 4756)-product) date Wed 28 May 2014 22:47:49 BST*
%MOIN*%
G01*
G70*
G90*
G04 APERTURE LIST*
%ADD10C,0.005906*%
%ADD11C,0.009843*%
%ADD12C,0.005000*%
%ADD13C,0.010000*%
G04 APERTURE END LIST*
G54D10*
G54D11*
X52793Y-46325D02*
X52980Y-46325D01*
X52755Y-46437D02*
X52887Y-46044D01*
X53018Y-46437D01*
X53149Y-46437D02*
X53149Y-46175D01*
X53149Y-46250D02*
X53168Y-46212D01*
X53187Y-46194D01*
X53224Y-46175D01*
X53262Y-46175D01*
X53562Y-46437D02*
X53562Y-46044D01*
X53562Y-46419D02*
X53524Y-46437D01*
X53449Y-46437D01*
X53412Y-46419D01*
X53393Y-46400D01*
X53374Y-46362D01*
X53374Y-46250D01*
X53393Y-46212D01*
X53412Y-46194D01*
X53449Y-46175D01*
X53524Y-46175D01*
X53562Y-46194D01*
X53918Y-46175D02*
X53918Y-46437D01*
X53749Y-46175D02*
X53749Y-46381D01*
X53768Y-46419D01*
X53805Y-46437D01*
X53862Y-46437D01*
X53899Y-46419D01*
X53918Y-46400D01*
X54105Y-46437D02*
X54105Y-46175D01*
X54105Y-46044D02*
X54086Y-46062D01*
X54105Y-46081D01*
X54124Y-46062D01*
X54105Y-46044D01*
X54105Y-46081D01*
X54293Y-46175D02*
X54293Y-46437D01*
X54293Y-46212D02*
X54311Y-46194D01*
X54349Y-46175D01*
X54405Y-46175D01*
X54443Y-46194D01*
X54461Y-46231D01*
X54461Y-46437D01*
X54705Y-46437D02*
X54668Y-46419D01*
X54649Y-46400D01*
X54630Y-46362D01*
X54630Y-46250D01*
X54649Y-46212D01*
X54668Y-46194D01*
X54705Y-46175D01*
X54761Y-46175D01*
X54799Y-46194D01*
X54818Y-46212D01*
X54836Y-46250D01*
X54836Y-46362D01*
X54818Y-46400D01*
X54799Y-46419D01*
X54761Y-46437D01*
X54705Y-46437D01*
X55305Y-46437D02*
X55305Y-46175D01*
X55305Y-46212D02*
X55324Y-46194D01*
X55361Y-46175D01*
X55418Y-46175D01*
X55455Y-46194D01*
X55474Y-46231D01*
X55474Y-46437D01*
X55474Y-46231D02*
X55493Y-46194D01*
X55530Y-46175D01*
X55586Y-46175D01*
X55624Y-46194D01*
X55643Y-46231D01*
X55643Y-46437D01*
X55830Y-46437D02*
X55830Y-46175D01*
X55830Y-46044D02*
X55811Y-46062D01*
X55830Y-46081D01*
X55849Y-46062D01*
X55830Y-46044D01*
X55830Y-46081D01*
X56186Y-46419D02*
X56149Y-46437D01*
X56074Y-46437D01*
X56036Y-46419D01*
X56017Y-46400D01*
X55999Y-46362D01*
X55999Y-46250D01*
X56017Y-46212D01*
X56036Y-46194D01*
X56074Y-46175D01*
X56149Y-46175D01*
X56186Y-46194D01*
X56355Y-46437D02*
X56355Y-46175D01*
X56355Y-46250D02*
X56374Y-46212D01*
X56392Y-46194D01*
X56430Y-46175D01*
X56467Y-46175D01*
X56655Y-46437D02*
X56617Y-46419D01*
X56599Y-46400D01*
X56580Y-46362D01*
X56580Y-46250D01*
X56599Y-46212D01*
X56617Y-46194D01*
X56655Y-46175D01*
X56711Y-46175D01*
X56749Y-46194D01*
X56767Y-46212D01*
X56786Y-46250D01*
X56786Y-46362D01*
X56767Y-46400D01*
X56749Y-46419D01*
X56711Y-46437D01*
X56655Y-46437D01*
X57255Y-46175D02*
X57255Y-46569D01*
X57255Y-46194D02*
X57292Y-46175D01*
X57367Y-46175D01*
X57405Y-46194D01*
X57424Y-46212D01*
X57442Y-46250D01*
X57442Y-46362D01*
X57424Y-46400D01*
X57405Y-46419D01*
X57367Y-46437D01*
X57292Y-46437D01*
X57255Y-46419D01*
X57611Y-46437D02*
X57611Y-46175D01*
X57611Y-46250D02*
X57630Y-46212D01*
X57649Y-46194D01*
X57686Y-46175D01*
X57724Y-46175D01*
X57911Y-46437D02*
X57874Y-46419D01*
X57855Y-46400D01*
X57836Y-46362D01*
X57836Y-46250D01*
X57855Y-46212D01*
X57874Y-46194D01*
X57911Y-46175D01*
X57967Y-46175D01*
X58005Y-46194D01*
X58023Y-46212D01*
X58042Y-46250D01*
X58042Y-46362D01*
X58023Y-46400D01*
X58005Y-46419D01*
X57967Y-46437D01*
X57911Y-46437D01*
X58511Y-46437D02*
X58511Y-46044D01*
X58923Y-46400D02*
X58905Y-46419D01*
X58848Y-46437D01*
X58811Y-46437D01*
X58755Y-46419D01*
X58717Y-46381D01*
X58698Y-46344D01*
X58680Y-46269D01*
X58680Y-46212D01*
X58698Y-46137D01*
X58717Y-46100D01*
X58755Y-46062D01*
X58811Y-46044D01*
X58848Y-46044D01*
X58905Y-46062D01*
X58923Y-46081D01*
X59092Y-46437D02*
X59092Y-46044D01*
X59242Y-46044D01*
X59280Y-46062D01*
X59298Y-46081D01*
X59317Y-46119D01*
X59317Y-46175D01*
X59298Y-46212D01*
X59280Y-46231D01*
X59242Y-46250D01*
X59092Y-46250D01*
X59786Y-46437D02*
X59786Y-46044D01*
X59786Y-46194D02*
X59823Y-46175D01*
X59898Y-46175D01*
X59936Y-46194D01*
X59955Y-46212D01*
X59973Y-46250D01*
X59973Y-46362D01*
X59955Y-46400D01*
X59936Y-46419D01*
X59898Y-46437D01*
X59823Y-46437D01*
X59786Y-46419D01*
X60142Y-46437D02*
X60142Y-46175D01*
X60142Y-46250D02*
X60161Y-46212D01*
X60179Y-46194D01*
X60217Y-46175D01*
X60254Y-46175D01*
X60536Y-46419D02*
X60498Y-46437D01*
X60423Y-46437D01*
X60386Y-46419D01*
X60367Y-46381D01*
X60367Y-46231D01*
X60386Y-46194D01*
X60423Y-46175D01*
X60498Y-46175D01*
X60536Y-46194D01*
X60554Y-46231D01*
X60554Y-46269D01*
X60367Y-46306D01*
X60892Y-46437D02*
X60892Y-46231D01*
X60873Y-46194D01*
X60836Y-46175D01*
X60761Y-46175D01*
X60723Y-46194D01*
X60892Y-46419D02*
X60854Y-46437D01*
X60761Y-46437D01*
X60723Y-46419D01*
X60704Y-46381D01*
X60704Y-46344D01*
X60723Y-46306D01*
X60761Y-46287D01*
X60854Y-46287D01*
X60892Y-46269D01*
X61079Y-46437D02*
X61079Y-46044D01*
X61117Y-46287D02*
X61229Y-46437D01*
X61229Y-46175D02*
X61079Y-46325D01*
X61454Y-46437D02*
X61417Y-46419D01*
X61398Y-46400D01*
X61379Y-46362D01*
X61379Y-46250D01*
X61398Y-46212D01*
X61417Y-46194D01*
X61454Y-46175D01*
X61511Y-46175D01*
X61548Y-46194D01*
X61567Y-46212D01*
X61586Y-46250D01*
X61586Y-46362D01*
X61567Y-46400D01*
X61548Y-46419D01*
X61511Y-46437D01*
X61454Y-46437D01*
X61923Y-46175D02*
X61923Y-46437D01*
X61754Y-46175D02*
X61754Y-46381D01*
X61773Y-46419D01*
X61811Y-46437D01*
X61867Y-46437D01*
X61904Y-46419D01*
X61923Y-46400D01*
X62054Y-46175D02*
X62204Y-46175D01*
X62110Y-46044D02*
X62110Y-46381D01*
X62129Y-46419D01*
X62167Y-46437D01*
X62204Y-46437D01*
X62635Y-46437D02*
X62635Y-46044D01*
X62635Y-46194D02*
X62673Y-46175D01*
X62748Y-46175D01*
X62785Y-46194D01*
X62804Y-46212D01*
X62823Y-46250D01*
X62823Y-46362D01*
X62804Y-46400D01*
X62785Y-46419D01*
X62748Y-46437D01*
X62673Y-46437D01*
X62635Y-46419D01*
X63048Y-46437D02*
X63010Y-46419D01*
X62992Y-46400D01*
X62973Y-46362D01*
X62973Y-46250D01*
X62992Y-46212D01*
X63010Y-46194D01*
X63048Y-46175D01*
X63104Y-46175D01*
X63142Y-46194D01*
X63160Y-46212D01*
X63179Y-46250D01*
X63179Y-46362D01*
X63160Y-46400D01*
X63142Y-46419D01*
X63104Y-46437D01*
X63048Y-46437D01*
X63517Y-46437D02*
X63517Y-46231D01*
X63498Y-46194D01*
X63460Y-46175D01*
X63385Y-46175D01*
X63348Y-46194D01*
X63517Y-46419D02*
X63479Y-46437D01*
X63385Y-46437D01*
X63348Y-46419D01*
X63329Y-46381D01*
X63329Y-46344D01*
X63348Y-46306D01*
X63385Y-46287D01*
X63479Y-46287D01*
X63517Y-46269D01*
X63704Y-46437D02*
X63704Y-46175D01*
X63704Y-46250D02*
X63723Y-46212D01*
X63742Y-46194D01*
X63779Y-46175D01*
X63817Y-46175D01*
X64116Y-46437D02*
X64116Y-46044D01*
X64116Y-46419D02*
X64079Y-46437D01*
X64004Y-46437D01*
X63967Y-46419D01*
X63948Y-46400D01*
X63929Y-46362D01*
X63929Y-46250D01*
X63948Y-46212D01*
X63967Y-46194D01*
X64004Y-46175D01*
X64079Y-46175D01*
X64116Y-46194D01*
G54D12*
X68401Y-42440D02*
G75*
G03X68401Y-42440I-1000J0D01*
G74*
G01*
X68901Y-43940D02*
X65901Y-43940D01*
X65901Y-43940D02*
X65901Y-40940D01*
X65901Y-40940D02*
X68901Y-40940D01*
X68901Y-43940D02*
X68901Y-40940D01*
G54D13*
X52464Y-47844D02*
X53464Y-47844D01*
X52464Y-46844D02*
X52464Y-47844D01*
X53464Y-46844D02*
X53464Y-47844D01*
X52464Y-46844D02*
X53464Y-46844D01*
X64464Y-47844D02*
X53464Y-47844D01*
X64464Y-46844D02*
X64464Y-47844D01*
X53464Y-46844D02*
X64464Y-46844D01*
X53464Y-40840D02*
X64464Y-40840D01*
X64464Y-40840D02*
X64464Y-41840D01*
X64464Y-41840D02*
X53464Y-41840D01*
X52464Y-40840D02*
X53464Y-40840D01*
X52464Y-40840D02*
X52464Y-41840D01*
X52464Y-41840D02*
X53464Y-41840D01*
X68980Y-46929D02*
X67980Y-46929D01*
X67980Y-46929D02*
X67980Y-45929D01*
X68980Y-45929D02*
X65980Y-45929D01*
X65980Y-45929D02*
X65980Y-47929D01*
X65980Y-47929D02*
X67980Y-47929D01*
X68980Y-45929D02*
X68980Y-46929D01*
X68980Y-47929D02*
X68980Y-46929D01*
X67980Y-47929D02*
X68980Y-47929D01*
M02*
