%FSLAX34Y34*%
G04 Gerber Fmt 3.4, Leading zero omitted, Abs format*
G04 (created by PCBNEW (2014-03-19 BZR 4756)-product) date Wed 28 May 2014 22:47:49 BST*
%MOIN*%
G01*
G70*
G90*
G04 APERTURE LIST*
%ADD10C,0.005906*%
%ADD11C,0.055000*%
%ADD12O,0.068000X0.080000*%
%ADD13R,0.068000X0.080000*%
%ADD14R,0.068000X0.068000*%
%ADD15O,0.068000X0.068000*%
%ADD16R,0.098425X0.098425*%
%ADD17C,0.035000*%
%ADD18C,0.010000*%
%ADD19C,0.007087*%
G04 APERTURE END LIST*
G54D10*
G54D11*
X65901Y-43440D03*
X65901Y-41440D03*
X68901Y-43440D03*
X68901Y-41440D03*
G54D12*
X63964Y-47344D03*
X62964Y-47344D03*
X61964Y-47344D03*
X60964Y-47344D03*
X59964Y-47344D03*
X58964Y-47344D03*
X57964Y-47344D03*
X56964Y-47344D03*
X55964Y-47344D03*
X54964Y-47344D03*
X53964Y-47344D03*
G54D13*
X52964Y-47344D03*
G54D12*
X52964Y-41340D03*
X53964Y-41340D03*
X54964Y-41340D03*
X55964Y-41340D03*
X56964Y-41340D03*
X57964Y-41340D03*
X58964Y-41340D03*
X59964Y-41340D03*
X60964Y-41340D03*
X61964Y-41340D03*
X62964Y-41340D03*
X63964Y-41340D03*
G54D14*
X68480Y-46429D03*
G54D15*
X68480Y-47429D03*
X67480Y-46429D03*
X67480Y-47429D03*
X66480Y-46429D03*
X66480Y-47429D03*
G54D16*
X50984Y-41141D03*
X50984Y-47440D03*
X70472Y-41141D03*
X70472Y-47440D03*
G54D17*
X65157Y-44685D03*
X59251Y-42519D03*
G54D18*
X65901Y-45360D02*
X65901Y-43440D01*
X66480Y-45939D02*
X65901Y-45360D01*
X66480Y-46429D02*
X66480Y-45939D01*
X65901Y-41440D02*
X65645Y-41440D01*
X65645Y-41440D02*
X65157Y-41929D01*
X65157Y-41929D02*
X65157Y-44685D01*
X53964Y-41340D02*
X53964Y-42350D01*
X54133Y-42519D02*
X59251Y-42519D01*
X53964Y-42350D02*
X54133Y-42519D01*
X66480Y-47429D02*
X66480Y-46939D01*
X54455Y-47324D02*
X54474Y-47344D01*
X54455Y-41340D02*
X54455Y-47324D01*
X54964Y-47344D02*
X54474Y-47344D01*
X53964Y-41340D02*
X54455Y-41340D01*
X67823Y-42519D02*
X68901Y-41440D01*
X66979Y-42519D02*
X67823Y-42519D01*
X66979Y-46623D02*
X66979Y-42519D01*
X66664Y-46939D02*
X66979Y-46623D01*
X66480Y-46939D02*
X66664Y-46939D01*
X66979Y-42519D02*
X65901Y-41440D01*
X62964Y-44613D02*
X62964Y-41340D01*
X66280Y-47928D02*
X62964Y-44613D01*
X66674Y-47928D02*
X66280Y-47928D01*
X66990Y-47612D02*
X66674Y-47928D01*
X66990Y-47429D02*
X66990Y-47612D01*
X67480Y-47429D02*
X66990Y-47429D01*
G54D10*
G36*
X71330Y-47428D02*
X71263Y-47768D01*
X71077Y-48046D01*
X71070Y-48050D01*
X71070Y-47954D01*
X71070Y-47911D01*
X71070Y-46927D01*
X71070Y-41655D01*
X71070Y-41612D01*
X71070Y-40628D01*
X71054Y-40589D01*
X71024Y-40559D01*
X70985Y-40543D01*
X70943Y-40543D01*
X69959Y-40543D01*
X69920Y-40559D01*
X69890Y-40589D01*
X69874Y-40628D01*
X69874Y-40670D01*
X69874Y-41655D01*
X69890Y-41694D01*
X69920Y-41723D01*
X69959Y-41740D01*
X70001Y-41740D01*
X70985Y-41740D01*
X71024Y-41723D01*
X71054Y-41694D01*
X71070Y-41655D01*
X71070Y-46927D01*
X71054Y-46888D01*
X71024Y-46858D01*
X70985Y-46842D01*
X70943Y-46842D01*
X69959Y-46842D01*
X69920Y-46858D01*
X69890Y-46888D01*
X69874Y-46927D01*
X69874Y-46969D01*
X69874Y-47954D01*
X69890Y-47993D01*
X69920Y-48023D01*
X69959Y-48039D01*
X70001Y-48039D01*
X70985Y-48039D01*
X71024Y-48023D01*
X71054Y-47993D01*
X71070Y-47954D01*
X71070Y-48050D01*
X70799Y-48231D01*
X70460Y-48299D01*
X69310Y-48299D01*
X69310Y-41362D01*
X69249Y-41211D01*
X69246Y-41207D01*
X69182Y-41179D01*
X69162Y-41199D01*
X69162Y-41160D01*
X69135Y-41095D01*
X68985Y-41032D01*
X68822Y-41031D01*
X68672Y-41092D01*
X68667Y-41095D01*
X68640Y-41160D01*
X68901Y-41421D01*
X69162Y-41160D01*
X69162Y-41199D01*
X68921Y-41440D01*
X69182Y-41702D01*
X69246Y-41674D01*
X69309Y-41524D01*
X69310Y-41362D01*
X69310Y-48299D01*
X69282Y-48299D01*
X69282Y-43365D01*
X69225Y-43225D01*
X69162Y-43162D01*
X69162Y-41721D01*
X68901Y-41460D01*
X68882Y-41479D01*
X68882Y-41440D01*
X68620Y-41179D01*
X68556Y-41207D01*
X68493Y-41357D01*
X68492Y-41519D01*
X68553Y-41670D01*
X68556Y-41674D01*
X68620Y-41702D01*
X68882Y-41440D01*
X68882Y-41479D01*
X68640Y-41721D01*
X68667Y-41786D01*
X68817Y-41849D01*
X68980Y-41850D01*
X69131Y-41788D01*
X69135Y-41786D01*
X69162Y-41721D01*
X69162Y-43162D01*
X69117Y-43117D01*
X68977Y-43059D01*
X68826Y-43059D01*
X68685Y-43117D01*
X68578Y-43224D01*
X68520Y-43364D01*
X68520Y-43516D01*
X68578Y-43656D01*
X68685Y-43764D01*
X68825Y-43822D01*
X68977Y-43822D01*
X69117Y-43764D01*
X69224Y-43657D01*
X69282Y-43517D01*
X69282Y-43365D01*
X69282Y-48299D01*
X68935Y-48299D01*
X68935Y-47429D01*
X68926Y-47385D01*
X68926Y-46790D01*
X68926Y-46747D01*
X68926Y-46067D01*
X68910Y-46028D01*
X68880Y-45999D01*
X68841Y-45982D01*
X68799Y-45982D01*
X68119Y-45982D01*
X68080Y-45999D01*
X68050Y-46028D01*
X68034Y-46067D01*
X68034Y-46110D01*
X68034Y-46790D01*
X68050Y-46829D01*
X68080Y-46859D01*
X68119Y-46875D01*
X68161Y-46875D01*
X68841Y-46875D01*
X68880Y-46859D01*
X68910Y-46829D01*
X68926Y-46790D01*
X68926Y-47385D01*
X68901Y-47258D01*
X68804Y-47113D01*
X68659Y-47016D01*
X68489Y-46982D01*
X68471Y-46982D01*
X68300Y-47016D01*
X68155Y-47113D01*
X68059Y-47258D01*
X68025Y-47429D01*
X68059Y-47599D01*
X68155Y-47744D01*
X68300Y-47841D01*
X68471Y-47875D01*
X68489Y-47875D01*
X68659Y-47841D01*
X68804Y-47744D01*
X68901Y-47599D01*
X68935Y-47429D01*
X68935Y-48299D01*
X67935Y-48299D01*
X67935Y-47429D01*
X67935Y-46429D01*
X67901Y-46258D01*
X67804Y-46113D01*
X67659Y-46016D01*
X67489Y-45982D01*
X67471Y-45982D01*
X67300Y-46016D01*
X67155Y-46113D01*
X67059Y-46258D01*
X67025Y-46429D01*
X67059Y-46599D01*
X67155Y-46744D01*
X67300Y-46841D01*
X67471Y-46875D01*
X67489Y-46875D01*
X67659Y-46841D01*
X67804Y-46744D01*
X67901Y-46599D01*
X67935Y-46429D01*
X67935Y-47429D01*
X67901Y-47258D01*
X67804Y-47113D01*
X67659Y-47016D01*
X67489Y-46982D01*
X67471Y-46982D01*
X67300Y-47016D01*
X67155Y-47113D01*
X67059Y-47258D01*
X67056Y-47272D01*
X66990Y-47272D01*
X66935Y-47283D01*
X66935Y-46429D01*
X66901Y-46258D01*
X66804Y-46113D01*
X66659Y-46016D01*
X66636Y-46012D01*
X66636Y-45939D01*
X66624Y-45879D01*
X66590Y-45828D01*
X66310Y-45548D01*
X66310Y-41362D01*
X66249Y-41211D01*
X66246Y-41207D01*
X66182Y-41179D01*
X66162Y-41199D01*
X66162Y-41160D01*
X66135Y-41095D01*
X65985Y-41032D01*
X65822Y-41031D01*
X65672Y-41092D01*
X65667Y-41095D01*
X65640Y-41160D01*
X65901Y-41421D01*
X66162Y-41160D01*
X66162Y-41199D01*
X65921Y-41440D01*
X66182Y-41702D01*
X66246Y-41674D01*
X66309Y-41524D01*
X66310Y-41362D01*
X66310Y-45548D01*
X66057Y-45295D01*
X66057Y-43788D01*
X66117Y-43764D01*
X66224Y-43657D01*
X66282Y-43517D01*
X66282Y-43365D01*
X66225Y-43225D01*
X66162Y-43162D01*
X66162Y-41721D01*
X65901Y-41460D01*
X65882Y-41479D01*
X65882Y-41440D01*
X65620Y-41179D01*
X65556Y-41207D01*
X65493Y-41357D01*
X65492Y-41519D01*
X65553Y-41670D01*
X65556Y-41674D01*
X65620Y-41702D01*
X65882Y-41440D01*
X65882Y-41479D01*
X65640Y-41721D01*
X65667Y-41786D01*
X65817Y-41849D01*
X65980Y-41850D01*
X66131Y-41788D01*
X66135Y-41786D01*
X66162Y-41721D01*
X66162Y-43162D01*
X66117Y-43117D01*
X65977Y-43059D01*
X65826Y-43059D01*
X65685Y-43117D01*
X65578Y-43224D01*
X65520Y-43364D01*
X65520Y-43516D01*
X65578Y-43656D01*
X65685Y-43764D01*
X65745Y-43788D01*
X65745Y-45360D01*
X65757Y-45420D01*
X65791Y-45470D01*
X66324Y-46003D01*
X66324Y-46012D01*
X66300Y-46016D01*
X66155Y-46113D01*
X66059Y-46258D01*
X66025Y-46429D01*
X66059Y-46599D01*
X66155Y-46744D01*
X66300Y-46841D01*
X66471Y-46875D01*
X66489Y-46875D01*
X66659Y-46841D01*
X66804Y-46744D01*
X66901Y-46599D01*
X66935Y-46429D01*
X66935Y-47283D01*
X66930Y-47284D01*
X66925Y-47288D01*
X66871Y-47161D01*
X66739Y-47032D01*
X66568Y-46963D01*
X66494Y-46988D01*
X66494Y-47415D01*
X66501Y-47415D01*
X66501Y-47442D01*
X66494Y-47442D01*
X66494Y-47450D01*
X66466Y-47450D01*
X66466Y-47442D01*
X66466Y-47415D01*
X66466Y-46988D01*
X66392Y-46963D01*
X66221Y-47032D01*
X66089Y-47161D01*
X66016Y-47331D01*
X66014Y-47341D01*
X66040Y-47415D01*
X66466Y-47415D01*
X66466Y-47442D01*
X66040Y-47442D01*
X66033Y-47461D01*
X64411Y-45838D01*
X64411Y-41410D01*
X64411Y-41270D01*
X64377Y-41099D01*
X64280Y-40954D01*
X64135Y-40857D01*
X63964Y-40823D01*
X63794Y-40857D01*
X63649Y-40954D01*
X63552Y-41099D01*
X63518Y-41270D01*
X63518Y-41410D01*
X63552Y-41580D01*
X63649Y-41725D01*
X63794Y-41822D01*
X63964Y-41856D01*
X64135Y-41822D01*
X64280Y-41725D01*
X64377Y-41580D01*
X64411Y-41410D01*
X64411Y-45838D01*
X63121Y-44548D01*
X63121Y-41825D01*
X63135Y-41822D01*
X63280Y-41725D01*
X63377Y-41580D01*
X63411Y-41410D01*
X63411Y-41270D01*
X63377Y-41099D01*
X63280Y-40954D01*
X63135Y-40857D01*
X62964Y-40823D01*
X62794Y-40857D01*
X62649Y-40954D01*
X62552Y-41099D01*
X62518Y-41270D01*
X62518Y-41410D01*
X62552Y-41580D01*
X62649Y-41725D01*
X62794Y-41822D01*
X62808Y-41825D01*
X62808Y-44613D01*
X62820Y-44673D01*
X62854Y-44724D01*
X66169Y-48039D01*
X66220Y-48073D01*
X66280Y-48085D01*
X66674Y-48085D01*
X66674Y-48085D01*
X66734Y-48073D01*
X66784Y-48039D01*
X67100Y-47723D01*
X67100Y-47723D01*
X67121Y-47692D01*
X67155Y-47744D01*
X67300Y-47841D01*
X67471Y-47875D01*
X67489Y-47875D01*
X67659Y-47841D01*
X67804Y-47744D01*
X67901Y-47599D01*
X67935Y-47429D01*
X67935Y-48299D01*
X64411Y-48299D01*
X64411Y-47414D01*
X64411Y-47274D01*
X64377Y-47103D01*
X64280Y-46958D01*
X64135Y-46861D01*
X63964Y-46827D01*
X63794Y-46861D01*
X63649Y-46958D01*
X63552Y-47103D01*
X63518Y-47274D01*
X63518Y-47414D01*
X63552Y-47584D01*
X63649Y-47729D01*
X63794Y-47826D01*
X63964Y-47860D01*
X64135Y-47826D01*
X64280Y-47729D01*
X64377Y-47584D01*
X64411Y-47414D01*
X64411Y-48299D01*
X63411Y-48299D01*
X63411Y-47414D01*
X63411Y-47274D01*
X63377Y-47103D01*
X63280Y-46958D01*
X63135Y-46861D01*
X62964Y-46827D01*
X62794Y-46861D01*
X62649Y-46958D01*
X62552Y-47103D01*
X62518Y-47274D01*
X62518Y-47414D01*
X62552Y-47584D01*
X62649Y-47729D01*
X62794Y-47826D01*
X62964Y-47860D01*
X63135Y-47826D01*
X63280Y-47729D01*
X63377Y-47584D01*
X63411Y-47414D01*
X63411Y-48299D01*
X62411Y-48299D01*
X62411Y-47414D01*
X62411Y-47274D01*
X62411Y-41410D01*
X62411Y-41270D01*
X62377Y-41099D01*
X62280Y-40954D01*
X62135Y-40857D01*
X61964Y-40823D01*
X61794Y-40857D01*
X61649Y-40954D01*
X61552Y-41099D01*
X61518Y-41270D01*
X61518Y-41410D01*
X61552Y-41580D01*
X61649Y-41725D01*
X61794Y-41822D01*
X61964Y-41856D01*
X62135Y-41822D01*
X62280Y-41725D01*
X62377Y-41580D01*
X62411Y-41410D01*
X62411Y-47274D01*
X62377Y-47103D01*
X62280Y-46958D01*
X62135Y-46861D01*
X61964Y-46827D01*
X61794Y-46861D01*
X61649Y-46958D01*
X61552Y-47103D01*
X61518Y-47274D01*
X61518Y-47414D01*
X61552Y-47584D01*
X61649Y-47729D01*
X61794Y-47826D01*
X61964Y-47860D01*
X62135Y-47826D01*
X62280Y-47729D01*
X62377Y-47584D01*
X62411Y-47414D01*
X62411Y-48299D01*
X61411Y-48299D01*
X61411Y-47414D01*
X61411Y-47274D01*
X61411Y-41410D01*
X61411Y-41270D01*
X61377Y-41099D01*
X61280Y-40954D01*
X61135Y-40857D01*
X60964Y-40823D01*
X60794Y-40857D01*
X60649Y-40954D01*
X60552Y-41099D01*
X60518Y-41270D01*
X60518Y-41410D01*
X60552Y-41580D01*
X60649Y-41725D01*
X60794Y-41822D01*
X60964Y-41856D01*
X61135Y-41822D01*
X61280Y-41725D01*
X61377Y-41580D01*
X61411Y-41410D01*
X61411Y-47274D01*
X61377Y-47103D01*
X61280Y-46958D01*
X61135Y-46861D01*
X60964Y-46827D01*
X60794Y-46861D01*
X60649Y-46958D01*
X60552Y-47103D01*
X60518Y-47274D01*
X60518Y-47414D01*
X60552Y-47584D01*
X60649Y-47729D01*
X60794Y-47826D01*
X60964Y-47860D01*
X61135Y-47826D01*
X61280Y-47729D01*
X61377Y-47584D01*
X61411Y-47414D01*
X61411Y-48299D01*
X60411Y-48299D01*
X60411Y-47414D01*
X60411Y-47274D01*
X60411Y-41410D01*
X60411Y-41270D01*
X60377Y-41099D01*
X60280Y-40954D01*
X60135Y-40857D01*
X59964Y-40823D01*
X59794Y-40857D01*
X59649Y-40954D01*
X59552Y-41099D01*
X59518Y-41270D01*
X59518Y-41410D01*
X59552Y-41580D01*
X59649Y-41725D01*
X59794Y-41822D01*
X59964Y-41856D01*
X60135Y-41822D01*
X60280Y-41725D01*
X60377Y-41580D01*
X60411Y-41410D01*
X60411Y-47274D01*
X60377Y-47103D01*
X60280Y-46958D01*
X60135Y-46861D01*
X59964Y-46827D01*
X59794Y-46861D01*
X59649Y-46958D01*
X59552Y-47103D01*
X59518Y-47274D01*
X59518Y-47414D01*
X59552Y-47584D01*
X59649Y-47729D01*
X59794Y-47826D01*
X59964Y-47860D01*
X60135Y-47826D01*
X60280Y-47729D01*
X60377Y-47584D01*
X60411Y-47414D01*
X60411Y-48299D01*
X59411Y-48299D01*
X59411Y-47414D01*
X59411Y-47274D01*
X59411Y-41410D01*
X59411Y-41270D01*
X59377Y-41099D01*
X59280Y-40954D01*
X59135Y-40857D01*
X58964Y-40823D01*
X58794Y-40857D01*
X58649Y-40954D01*
X58552Y-41099D01*
X58518Y-41270D01*
X58518Y-41410D01*
X58552Y-41580D01*
X58649Y-41725D01*
X58794Y-41822D01*
X58964Y-41856D01*
X59135Y-41822D01*
X59280Y-41725D01*
X59377Y-41580D01*
X59411Y-41410D01*
X59411Y-47274D01*
X59377Y-47103D01*
X59280Y-46958D01*
X59135Y-46861D01*
X58964Y-46827D01*
X58794Y-46861D01*
X58649Y-46958D01*
X58552Y-47103D01*
X58518Y-47274D01*
X58518Y-47414D01*
X58552Y-47584D01*
X58649Y-47729D01*
X58794Y-47826D01*
X58964Y-47860D01*
X59135Y-47826D01*
X59280Y-47729D01*
X59377Y-47584D01*
X59411Y-47414D01*
X59411Y-48299D01*
X58411Y-48299D01*
X58411Y-47414D01*
X58411Y-47274D01*
X58411Y-41410D01*
X58411Y-41270D01*
X58377Y-41099D01*
X58280Y-40954D01*
X58135Y-40857D01*
X57964Y-40823D01*
X57794Y-40857D01*
X57649Y-40954D01*
X57552Y-41099D01*
X57518Y-41270D01*
X57518Y-41410D01*
X57552Y-41580D01*
X57649Y-41725D01*
X57794Y-41822D01*
X57964Y-41856D01*
X58135Y-41822D01*
X58280Y-41725D01*
X58377Y-41580D01*
X58411Y-41410D01*
X58411Y-47274D01*
X58377Y-47103D01*
X58280Y-46958D01*
X58135Y-46861D01*
X57964Y-46827D01*
X57794Y-46861D01*
X57649Y-46958D01*
X57552Y-47103D01*
X57518Y-47274D01*
X57518Y-47414D01*
X57552Y-47584D01*
X57649Y-47729D01*
X57794Y-47826D01*
X57964Y-47860D01*
X58135Y-47826D01*
X58280Y-47729D01*
X58377Y-47584D01*
X58411Y-47414D01*
X58411Y-48299D01*
X57411Y-48299D01*
X57411Y-47414D01*
X57411Y-47274D01*
X57411Y-41410D01*
X57411Y-41270D01*
X57377Y-41099D01*
X57280Y-40954D01*
X57135Y-40857D01*
X56964Y-40823D01*
X56794Y-40857D01*
X56649Y-40954D01*
X56552Y-41099D01*
X56518Y-41270D01*
X56518Y-41410D01*
X56552Y-41580D01*
X56649Y-41725D01*
X56794Y-41822D01*
X56964Y-41856D01*
X57135Y-41822D01*
X57280Y-41725D01*
X57377Y-41580D01*
X57411Y-41410D01*
X57411Y-47274D01*
X57377Y-47103D01*
X57280Y-46958D01*
X57135Y-46861D01*
X56964Y-46827D01*
X56794Y-46861D01*
X56649Y-46958D01*
X56552Y-47103D01*
X56518Y-47274D01*
X56518Y-47414D01*
X56552Y-47584D01*
X56649Y-47729D01*
X56794Y-47826D01*
X56964Y-47860D01*
X57135Y-47826D01*
X57280Y-47729D01*
X57377Y-47584D01*
X57411Y-47414D01*
X57411Y-48299D01*
X56438Y-48299D01*
X56438Y-47417D01*
X56438Y-47357D01*
X56438Y-47330D01*
X56438Y-47270D01*
X56411Y-47150D01*
X56411Y-41410D01*
X56411Y-41270D01*
X56377Y-41099D01*
X56280Y-40954D01*
X56135Y-40857D01*
X55964Y-40823D01*
X55794Y-40857D01*
X55649Y-40954D01*
X55552Y-41099D01*
X55518Y-41270D01*
X55518Y-41410D01*
X55552Y-41580D01*
X55649Y-41725D01*
X55794Y-41822D01*
X55964Y-41856D01*
X56135Y-41822D01*
X56280Y-41725D01*
X56377Y-41580D01*
X56411Y-41410D01*
X56411Y-47150D01*
X56397Y-47090D01*
X56290Y-46939D01*
X56133Y-46841D01*
X56052Y-46818D01*
X55978Y-46843D01*
X55978Y-47330D01*
X56438Y-47330D01*
X56438Y-47357D01*
X55978Y-47357D01*
X55978Y-47844D01*
X56052Y-47869D01*
X56133Y-47847D01*
X56290Y-47748D01*
X56397Y-47598D01*
X56438Y-47417D01*
X56438Y-48299D01*
X55951Y-48299D01*
X55951Y-47844D01*
X55951Y-47357D01*
X55951Y-47330D01*
X55951Y-46843D01*
X55877Y-46818D01*
X55796Y-46841D01*
X55639Y-46939D01*
X55532Y-47090D01*
X55491Y-47270D01*
X55491Y-47330D01*
X55951Y-47330D01*
X55951Y-47357D01*
X55491Y-47357D01*
X55491Y-47417D01*
X55532Y-47598D01*
X55639Y-47748D01*
X55796Y-47847D01*
X55877Y-47869D01*
X55951Y-47844D01*
X55951Y-48299D01*
X55438Y-48299D01*
X55438Y-47417D01*
X55438Y-47357D01*
X55438Y-47330D01*
X55438Y-47270D01*
X55411Y-47150D01*
X55411Y-41410D01*
X55411Y-41270D01*
X55377Y-41099D01*
X55280Y-40954D01*
X55135Y-40857D01*
X54964Y-40823D01*
X54794Y-40857D01*
X54649Y-40954D01*
X54552Y-41099D01*
X54518Y-41270D01*
X54518Y-41410D01*
X54552Y-41580D01*
X54649Y-41725D01*
X54794Y-41822D01*
X54964Y-41856D01*
X55135Y-41822D01*
X55280Y-41725D01*
X55377Y-41580D01*
X55411Y-41410D01*
X55411Y-47150D01*
X55397Y-47090D01*
X55290Y-46939D01*
X55133Y-46841D01*
X55052Y-46818D01*
X54978Y-46843D01*
X54978Y-47330D01*
X55438Y-47330D01*
X55438Y-47357D01*
X54978Y-47357D01*
X54978Y-47844D01*
X55052Y-47869D01*
X55133Y-47847D01*
X55290Y-47748D01*
X55397Y-47598D01*
X55438Y-47417D01*
X55438Y-48299D01*
X54951Y-48299D01*
X54951Y-47844D01*
X54951Y-47357D01*
X54951Y-47330D01*
X54951Y-46843D01*
X54877Y-46818D01*
X54796Y-46841D01*
X54639Y-46939D01*
X54532Y-47090D01*
X54491Y-47270D01*
X54491Y-47330D01*
X54951Y-47330D01*
X54951Y-47357D01*
X54491Y-47357D01*
X54491Y-47417D01*
X54532Y-47598D01*
X54639Y-47748D01*
X54796Y-47847D01*
X54877Y-47869D01*
X54951Y-47844D01*
X54951Y-48299D01*
X54438Y-48299D01*
X54438Y-41413D01*
X54438Y-41353D01*
X54438Y-41326D01*
X54438Y-41266D01*
X54397Y-41086D01*
X54290Y-40935D01*
X54133Y-40837D01*
X54052Y-40814D01*
X53978Y-40839D01*
X53978Y-41326D01*
X54438Y-41326D01*
X54438Y-41353D01*
X53978Y-41353D01*
X53978Y-41840D01*
X54052Y-41865D01*
X54133Y-41843D01*
X54290Y-41744D01*
X54397Y-41594D01*
X54438Y-41413D01*
X54438Y-48299D01*
X54411Y-48299D01*
X54411Y-47414D01*
X54411Y-47274D01*
X54377Y-47103D01*
X54280Y-46958D01*
X54135Y-46861D01*
X53964Y-46827D01*
X53951Y-46830D01*
X53951Y-41840D01*
X53951Y-41353D01*
X53951Y-41326D01*
X53951Y-40839D01*
X53877Y-40814D01*
X53796Y-40837D01*
X53639Y-40935D01*
X53532Y-41086D01*
X53491Y-41266D01*
X53491Y-41326D01*
X53951Y-41326D01*
X53951Y-41353D01*
X53491Y-41353D01*
X53491Y-41413D01*
X53532Y-41594D01*
X53639Y-41744D01*
X53796Y-41843D01*
X53877Y-41865D01*
X53951Y-41840D01*
X53951Y-46830D01*
X53794Y-46861D01*
X53649Y-46958D01*
X53552Y-47103D01*
X53518Y-47274D01*
X53518Y-47414D01*
X53552Y-47584D01*
X53649Y-47729D01*
X53794Y-47826D01*
X53964Y-47860D01*
X54135Y-47826D01*
X54280Y-47729D01*
X54377Y-47584D01*
X54411Y-47414D01*
X54411Y-48299D01*
X53411Y-48299D01*
X53411Y-47765D01*
X53411Y-47722D01*
X53411Y-46922D01*
X53411Y-41410D01*
X53411Y-41270D01*
X53377Y-41099D01*
X53280Y-40954D01*
X53135Y-40857D01*
X52964Y-40823D01*
X52794Y-40857D01*
X52649Y-40954D01*
X52552Y-41099D01*
X52518Y-41270D01*
X52518Y-41410D01*
X52552Y-41580D01*
X52649Y-41725D01*
X52794Y-41822D01*
X52964Y-41856D01*
X53135Y-41822D01*
X53280Y-41725D01*
X53377Y-41580D01*
X53411Y-41410D01*
X53411Y-46922D01*
X53395Y-46883D01*
X53365Y-46853D01*
X53326Y-46837D01*
X53283Y-46837D01*
X52603Y-46837D01*
X52564Y-46853D01*
X52534Y-46883D01*
X52518Y-46922D01*
X52518Y-46965D01*
X52518Y-47765D01*
X52534Y-47804D01*
X52564Y-47834D01*
X52603Y-47850D01*
X52646Y-47850D01*
X53326Y-47850D01*
X53365Y-47834D01*
X53395Y-47804D01*
X53411Y-47765D01*
X53411Y-48299D01*
X51582Y-48299D01*
X51582Y-47954D01*
X51582Y-47911D01*
X51582Y-46927D01*
X51582Y-41655D01*
X51582Y-41612D01*
X51582Y-40628D01*
X51566Y-40589D01*
X51536Y-40559D01*
X51497Y-40543D01*
X51455Y-40543D01*
X50470Y-40543D01*
X50431Y-40559D01*
X50402Y-40589D01*
X50385Y-40628D01*
X50385Y-40670D01*
X50385Y-41655D01*
X50402Y-41694D01*
X50431Y-41723D01*
X50470Y-41740D01*
X50513Y-41740D01*
X51497Y-41740D01*
X51536Y-41723D01*
X51566Y-41694D01*
X51582Y-41655D01*
X51582Y-46927D01*
X51566Y-46888D01*
X51536Y-46858D01*
X51497Y-46842D01*
X51455Y-46842D01*
X50470Y-46842D01*
X50431Y-46858D01*
X50402Y-46888D01*
X50385Y-46927D01*
X50385Y-46969D01*
X50385Y-47954D01*
X50402Y-47993D01*
X50431Y-48023D01*
X50470Y-48039D01*
X50513Y-48039D01*
X51497Y-48039D01*
X51536Y-48023D01*
X51566Y-47993D01*
X51582Y-47954D01*
X51582Y-48299D01*
X50996Y-48299D01*
X50656Y-48231D01*
X50379Y-48046D01*
X50193Y-47768D01*
X50125Y-47428D01*
X50125Y-41535D01*
X50125Y-41154D01*
X50193Y-40814D01*
X50379Y-40536D01*
X50656Y-40351D01*
X50996Y-40283D01*
X70460Y-40283D01*
X70799Y-40351D01*
X71077Y-40536D01*
X71263Y-40814D01*
X71330Y-41154D01*
X71330Y-41535D01*
X71330Y-47428D01*
X71330Y-47428D01*
G37*
G54D19*
X71330Y-47428D02*
X71263Y-47768D01*
X71077Y-48046D01*
X71070Y-48050D01*
X71070Y-47954D01*
X71070Y-47911D01*
X71070Y-46927D01*
X71070Y-41655D01*
X71070Y-41612D01*
X71070Y-40628D01*
X71054Y-40589D01*
X71024Y-40559D01*
X70985Y-40543D01*
X70943Y-40543D01*
X69959Y-40543D01*
X69920Y-40559D01*
X69890Y-40589D01*
X69874Y-40628D01*
X69874Y-40670D01*
X69874Y-41655D01*
X69890Y-41694D01*
X69920Y-41723D01*
X69959Y-41740D01*
X70001Y-41740D01*
X70985Y-41740D01*
X71024Y-41723D01*
X71054Y-41694D01*
X71070Y-41655D01*
X71070Y-46927D01*
X71054Y-46888D01*
X71024Y-46858D01*
X70985Y-46842D01*
X70943Y-46842D01*
X69959Y-46842D01*
X69920Y-46858D01*
X69890Y-46888D01*
X69874Y-46927D01*
X69874Y-46969D01*
X69874Y-47954D01*
X69890Y-47993D01*
X69920Y-48023D01*
X69959Y-48039D01*
X70001Y-48039D01*
X70985Y-48039D01*
X71024Y-48023D01*
X71054Y-47993D01*
X71070Y-47954D01*
X71070Y-48050D01*
X70799Y-48231D01*
X70460Y-48299D01*
X69310Y-48299D01*
X69310Y-41362D01*
X69249Y-41211D01*
X69246Y-41207D01*
X69182Y-41179D01*
X69162Y-41199D01*
X69162Y-41160D01*
X69135Y-41095D01*
X68985Y-41032D01*
X68822Y-41031D01*
X68672Y-41092D01*
X68667Y-41095D01*
X68640Y-41160D01*
X68901Y-41421D01*
X69162Y-41160D01*
X69162Y-41199D01*
X68921Y-41440D01*
X69182Y-41702D01*
X69246Y-41674D01*
X69309Y-41524D01*
X69310Y-41362D01*
X69310Y-48299D01*
X69282Y-48299D01*
X69282Y-43365D01*
X69225Y-43225D01*
X69162Y-43162D01*
X69162Y-41721D01*
X68901Y-41460D01*
X68882Y-41479D01*
X68882Y-41440D01*
X68620Y-41179D01*
X68556Y-41207D01*
X68493Y-41357D01*
X68492Y-41519D01*
X68553Y-41670D01*
X68556Y-41674D01*
X68620Y-41702D01*
X68882Y-41440D01*
X68882Y-41479D01*
X68640Y-41721D01*
X68667Y-41786D01*
X68817Y-41849D01*
X68980Y-41850D01*
X69131Y-41788D01*
X69135Y-41786D01*
X69162Y-41721D01*
X69162Y-43162D01*
X69117Y-43117D01*
X68977Y-43059D01*
X68826Y-43059D01*
X68685Y-43117D01*
X68578Y-43224D01*
X68520Y-43364D01*
X68520Y-43516D01*
X68578Y-43656D01*
X68685Y-43764D01*
X68825Y-43822D01*
X68977Y-43822D01*
X69117Y-43764D01*
X69224Y-43657D01*
X69282Y-43517D01*
X69282Y-43365D01*
X69282Y-48299D01*
X68935Y-48299D01*
X68935Y-47429D01*
X68926Y-47385D01*
X68926Y-46790D01*
X68926Y-46747D01*
X68926Y-46067D01*
X68910Y-46028D01*
X68880Y-45999D01*
X68841Y-45982D01*
X68799Y-45982D01*
X68119Y-45982D01*
X68080Y-45999D01*
X68050Y-46028D01*
X68034Y-46067D01*
X68034Y-46110D01*
X68034Y-46790D01*
X68050Y-46829D01*
X68080Y-46859D01*
X68119Y-46875D01*
X68161Y-46875D01*
X68841Y-46875D01*
X68880Y-46859D01*
X68910Y-46829D01*
X68926Y-46790D01*
X68926Y-47385D01*
X68901Y-47258D01*
X68804Y-47113D01*
X68659Y-47016D01*
X68489Y-46982D01*
X68471Y-46982D01*
X68300Y-47016D01*
X68155Y-47113D01*
X68059Y-47258D01*
X68025Y-47429D01*
X68059Y-47599D01*
X68155Y-47744D01*
X68300Y-47841D01*
X68471Y-47875D01*
X68489Y-47875D01*
X68659Y-47841D01*
X68804Y-47744D01*
X68901Y-47599D01*
X68935Y-47429D01*
X68935Y-48299D01*
X67935Y-48299D01*
X67935Y-47429D01*
X67935Y-46429D01*
X67901Y-46258D01*
X67804Y-46113D01*
X67659Y-46016D01*
X67489Y-45982D01*
X67471Y-45982D01*
X67300Y-46016D01*
X67155Y-46113D01*
X67059Y-46258D01*
X67025Y-46429D01*
X67059Y-46599D01*
X67155Y-46744D01*
X67300Y-46841D01*
X67471Y-46875D01*
X67489Y-46875D01*
X67659Y-46841D01*
X67804Y-46744D01*
X67901Y-46599D01*
X67935Y-46429D01*
X67935Y-47429D01*
X67901Y-47258D01*
X67804Y-47113D01*
X67659Y-47016D01*
X67489Y-46982D01*
X67471Y-46982D01*
X67300Y-47016D01*
X67155Y-47113D01*
X67059Y-47258D01*
X67056Y-47272D01*
X66990Y-47272D01*
X66935Y-47283D01*
X66935Y-46429D01*
X66901Y-46258D01*
X66804Y-46113D01*
X66659Y-46016D01*
X66636Y-46012D01*
X66636Y-45939D01*
X66624Y-45879D01*
X66590Y-45828D01*
X66310Y-45548D01*
X66310Y-41362D01*
X66249Y-41211D01*
X66246Y-41207D01*
X66182Y-41179D01*
X66162Y-41199D01*
X66162Y-41160D01*
X66135Y-41095D01*
X65985Y-41032D01*
X65822Y-41031D01*
X65672Y-41092D01*
X65667Y-41095D01*
X65640Y-41160D01*
X65901Y-41421D01*
X66162Y-41160D01*
X66162Y-41199D01*
X65921Y-41440D01*
X66182Y-41702D01*
X66246Y-41674D01*
X66309Y-41524D01*
X66310Y-41362D01*
X66310Y-45548D01*
X66057Y-45295D01*
X66057Y-43788D01*
X66117Y-43764D01*
X66224Y-43657D01*
X66282Y-43517D01*
X66282Y-43365D01*
X66225Y-43225D01*
X66162Y-43162D01*
X66162Y-41721D01*
X65901Y-41460D01*
X65882Y-41479D01*
X65882Y-41440D01*
X65620Y-41179D01*
X65556Y-41207D01*
X65493Y-41357D01*
X65492Y-41519D01*
X65553Y-41670D01*
X65556Y-41674D01*
X65620Y-41702D01*
X65882Y-41440D01*
X65882Y-41479D01*
X65640Y-41721D01*
X65667Y-41786D01*
X65817Y-41849D01*
X65980Y-41850D01*
X66131Y-41788D01*
X66135Y-41786D01*
X66162Y-41721D01*
X66162Y-43162D01*
X66117Y-43117D01*
X65977Y-43059D01*
X65826Y-43059D01*
X65685Y-43117D01*
X65578Y-43224D01*
X65520Y-43364D01*
X65520Y-43516D01*
X65578Y-43656D01*
X65685Y-43764D01*
X65745Y-43788D01*
X65745Y-45360D01*
X65757Y-45420D01*
X65791Y-45470D01*
X66324Y-46003D01*
X66324Y-46012D01*
X66300Y-46016D01*
X66155Y-46113D01*
X66059Y-46258D01*
X66025Y-46429D01*
X66059Y-46599D01*
X66155Y-46744D01*
X66300Y-46841D01*
X66471Y-46875D01*
X66489Y-46875D01*
X66659Y-46841D01*
X66804Y-46744D01*
X66901Y-46599D01*
X66935Y-46429D01*
X66935Y-47283D01*
X66930Y-47284D01*
X66925Y-47288D01*
X66871Y-47161D01*
X66739Y-47032D01*
X66568Y-46963D01*
X66494Y-46988D01*
X66494Y-47415D01*
X66501Y-47415D01*
X66501Y-47442D01*
X66494Y-47442D01*
X66494Y-47450D01*
X66466Y-47450D01*
X66466Y-47442D01*
X66466Y-47415D01*
X66466Y-46988D01*
X66392Y-46963D01*
X66221Y-47032D01*
X66089Y-47161D01*
X66016Y-47331D01*
X66014Y-47341D01*
X66040Y-47415D01*
X66466Y-47415D01*
X66466Y-47442D01*
X66040Y-47442D01*
X66033Y-47461D01*
X64411Y-45838D01*
X64411Y-41410D01*
X64411Y-41270D01*
X64377Y-41099D01*
X64280Y-40954D01*
X64135Y-40857D01*
X63964Y-40823D01*
X63794Y-40857D01*
X63649Y-40954D01*
X63552Y-41099D01*
X63518Y-41270D01*
X63518Y-41410D01*
X63552Y-41580D01*
X63649Y-41725D01*
X63794Y-41822D01*
X63964Y-41856D01*
X64135Y-41822D01*
X64280Y-41725D01*
X64377Y-41580D01*
X64411Y-41410D01*
X64411Y-45838D01*
X63121Y-44548D01*
X63121Y-41825D01*
X63135Y-41822D01*
X63280Y-41725D01*
X63377Y-41580D01*
X63411Y-41410D01*
X63411Y-41270D01*
X63377Y-41099D01*
X63280Y-40954D01*
X63135Y-40857D01*
X62964Y-40823D01*
X62794Y-40857D01*
X62649Y-40954D01*
X62552Y-41099D01*
X62518Y-41270D01*
X62518Y-41410D01*
X62552Y-41580D01*
X62649Y-41725D01*
X62794Y-41822D01*
X62808Y-41825D01*
X62808Y-44613D01*
X62820Y-44673D01*
X62854Y-44724D01*
X66169Y-48039D01*
X66220Y-48073D01*
X66280Y-48085D01*
X66674Y-48085D01*
X66674Y-48085D01*
X66734Y-48073D01*
X66784Y-48039D01*
X67100Y-47723D01*
X67100Y-47723D01*
X67121Y-47692D01*
X67155Y-47744D01*
X67300Y-47841D01*
X67471Y-47875D01*
X67489Y-47875D01*
X67659Y-47841D01*
X67804Y-47744D01*
X67901Y-47599D01*
X67935Y-47429D01*
X67935Y-48299D01*
X64411Y-48299D01*
X64411Y-47414D01*
X64411Y-47274D01*
X64377Y-47103D01*
X64280Y-46958D01*
X64135Y-46861D01*
X63964Y-46827D01*
X63794Y-46861D01*
X63649Y-46958D01*
X63552Y-47103D01*
X63518Y-47274D01*
X63518Y-47414D01*
X63552Y-47584D01*
X63649Y-47729D01*
X63794Y-47826D01*
X63964Y-47860D01*
X64135Y-47826D01*
X64280Y-47729D01*
X64377Y-47584D01*
X64411Y-47414D01*
X64411Y-48299D01*
X63411Y-48299D01*
X63411Y-47414D01*
X63411Y-47274D01*
X63377Y-47103D01*
X63280Y-46958D01*
X63135Y-46861D01*
X62964Y-46827D01*
X62794Y-46861D01*
X62649Y-46958D01*
X62552Y-47103D01*
X62518Y-47274D01*
X62518Y-47414D01*
X62552Y-47584D01*
X62649Y-47729D01*
X62794Y-47826D01*
X62964Y-47860D01*
X63135Y-47826D01*
X63280Y-47729D01*
X63377Y-47584D01*
X63411Y-47414D01*
X63411Y-48299D01*
X62411Y-48299D01*
X62411Y-47414D01*
X62411Y-47274D01*
X62411Y-41410D01*
X62411Y-41270D01*
X62377Y-41099D01*
X62280Y-40954D01*
X62135Y-40857D01*
X61964Y-40823D01*
X61794Y-40857D01*
X61649Y-40954D01*
X61552Y-41099D01*
X61518Y-41270D01*
X61518Y-41410D01*
X61552Y-41580D01*
X61649Y-41725D01*
X61794Y-41822D01*
X61964Y-41856D01*
X62135Y-41822D01*
X62280Y-41725D01*
X62377Y-41580D01*
X62411Y-41410D01*
X62411Y-47274D01*
X62377Y-47103D01*
X62280Y-46958D01*
X62135Y-46861D01*
X61964Y-46827D01*
X61794Y-46861D01*
X61649Y-46958D01*
X61552Y-47103D01*
X61518Y-47274D01*
X61518Y-47414D01*
X61552Y-47584D01*
X61649Y-47729D01*
X61794Y-47826D01*
X61964Y-47860D01*
X62135Y-47826D01*
X62280Y-47729D01*
X62377Y-47584D01*
X62411Y-47414D01*
X62411Y-48299D01*
X61411Y-48299D01*
X61411Y-47414D01*
X61411Y-47274D01*
X61411Y-41410D01*
X61411Y-41270D01*
X61377Y-41099D01*
X61280Y-40954D01*
X61135Y-40857D01*
X60964Y-40823D01*
X60794Y-40857D01*
X60649Y-40954D01*
X60552Y-41099D01*
X60518Y-41270D01*
X60518Y-41410D01*
X60552Y-41580D01*
X60649Y-41725D01*
X60794Y-41822D01*
X60964Y-41856D01*
X61135Y-41822D01*
X61280Y-41725D01*
X61377Y-41580D01*
X61411Y-41410D01*
X61411Y-47274D01*
X61377Y-47103D01*
X61280Y-46958D01*
X61135Y-46861D01*
X60964Y-46827D01*
X60794Y-46861D01*
X60649Y-46958D01*
X60552Y-47103D01*
X60518Y-47274D01*
X60518Y-47414D01*
X60552Y-47584D01*
X60649Y-47729D01*
X60794Y-47826D01*
X60964Y-47860D01*
X61135Y-47826D01*
X61280Y-47729D01*
X61377Y-47584D01*
X61411Y-47414D01*
X61411Y-48299D01*
X60411Y-48299D01*
X60411Y-47414D01*
X60411Y-47274D01*
X60411Y-41410D01*
X60411Y-41270D01*
X60377Y-41099D01*
X60280Y-40954D01*
X60135Y-40857D01*
X59964Y-40823D01*
X59794Y-40857D01*
X59649Y-40954D01*
X59552Y-41099D01*
X59518Y-41270D01*
X59518Y-41410D01*
X59552Y-41580D01*
X59649Y-41725D01*
X59794Y-41822D01*
X59964Y-41856D01*
X60135Y-41822D01*
X60280Y-41725D01*
X60377Y-41580D01*
X60411Y-41410D01*
X60411Y-47274D01*
X60377Y-47103D01*
X60280Y-46958D01*
X60135Y-46861D01*
X59964Y-46827D01*
X59794Y-46861D01*
X59649Y-46958D01*
X59552Y-47103D01*
X59518Y-47274D01*
X59518Y-47414D01*
X59552Y-47584D01*
X59649Y-47729D01*
X59794Y-47826D01*
X59964Y-47860D01*
X60135Y-47826D01*
X60280Y-47729D01*
X60377Y-47584D01*
X60411Y-47414D01*
X60411Y-48299D01*
X59411Y-48299D01*
X59411Y-47414D01*
X59411Y-47274D01*
X59411Y-41410D01*
X59411Y-41270D01*
X59377Y-41099D01*
X59280Y-40954D01*
X59135Y-40857D01*
X58964Y-40823D01*
X58794Y-40857D01*
X58649Y-40954D01*
X58552Y-41099D01*
X58518Y-41270D01*
X58518Y-41410D01*
X58552Y-41580D01*
X58649Y-41725D01*
X58794Y-41822D01*
X58964Y-41856D01*
X59135Y-41822D01*
X59280Y-41725D01*
X59377Y-41580D01*
X59411Y-41410D01*
X59411Y-47274D01*
X59377Y-47103D01*
X59280Y-46958D01*
X59135Y-46861D01*
X58964Y-46827D01*
X58794Y-46861D01*
X58649Y-46958D01*
X58552Y-47103D01*
X58518Y-47274D01*
X58518Y-47414D01*
X58552Y-47584D01*
X58649Y-47729D01*
X58794Y-47826D01*
X58964Y-47860D01*
X59135Y-47826D01*
X59280Y-47729D01*
X59377Y-47584D01*
X59411Y-47414D01*
X59411Y-48299D01*
X58411Y-48299D01*
X58411Y-47414D01*
X58411Y-47274D01*
X58411Y-41410D01*
X58411Y-41270D01*
X58377Y-41099D01*
X58280Y-40954D01*
X58135Y-40857D01*
X57964Y-40823D01*
X57794Y-40857D01*
X57649Y-40954D01*
X57552Y-41099D01*
X57518Y-41270D01*
X57518Y-41410D01*
X57552Y-41580D01*
X57649Y-41725D01*
X57794Y-41822D01*
X57964Y-41856D01*
X58135Y-41822D01*
X58280Y-41725D01*
X58377Y-41580D01*
X58411Y-41410D01*
X58411Y-47274D01*
X58377Y-47103D01*
X58280Y-46958D01*
X58135Y-46861D01*
X57964Y-46827D01*
X57794Y-46861D01*
X57649Y-46958D01*
X57552Y-47103D01*
X57518Y-47274D01*
X57518Y-47414D01*
X57552Y-47584D01*
X57649Y-47729D01*
X57794Y-47826D01*
X57964Y-47860D01*
X58135Y-47826D01*
X58280Y-47729D01*
X58377Y-47584D01*
X58411Y-47414D01*
X58411Y-48299D01*
X57411Y-48299D01*
X57411Y-47414D01*
X57411Y-47274D01*
X57411Y-41410D01*
X57411Y-41270D01*
X57377Y-41099D01*
X57280Y-40954D01*
X57135Y-40857D01*
X56964Y-40823D01*
X56794Y-40857D01*
X56649Y-40954D01*
X56552Y-41099D01*
X56518Y-41270D01*
X56518Y-41410D01*
X56552Y-41580D01*
X56649Y-41725D01*
X56794Y-41822D01*
X56964Y-41856D01*
X57135Y-41822D01*
X57280Y-41725D01*
X57377Y-41580D01*
X57411Y-41410D01*
X57411Y-47274D01*
X57377Y-47103D01*
X57280Y-46958D01*
X57135Y-46861D01*
X56964Y-46827D01*
X56794Y-46861D01*
X56649Y-46958D01*
X56552Y-47103D01*
X56518Y-47274D01*
X56518Y-47414D01*
X56552Y-47584D01*
X56649Y-47729D01*
X56794Y-47826D01*
X56964Y-47860D01*
X57135Y-47826D01*
X57280Y-47729D01*
X57377Y-47584D01*
X57411Y-47414D01*
X57411Y-48299D01*
X56438Y-48299D01*
X56438Y-47417D01*
X56438Y-47357D01*
X56438Y-47330D01*
X56438Y-47270D01*
X56411Y-47150D01*
X56411Y-41410D01*
X56411Y-41270D01*
X56377Y-41099D01*
X56280Y-40954D01*
X56135Y-40857D01*
X55964Y-40823D01*
X55794Y-40857D01*
X55649Y-40954D01*
X55552Y-41099D01*
X55518Y-41270D01*
X55518Y-41410D01*
X55552Y-41580D01*
X55649Y-41725D01*
X55794Y-41822D01*
X55964Y-41856D01*
X56135Y-41822D01*
X56280Y-41725D01*
X56377Y-41580D01*
X56411Y-41410D01*
X56411Y-47150D01*
X56397Y-47090D01*
X56290Y-46939D01*
X56133Y-46841D01*
X56052Y-46818D01*
X55978Y-46843D01*
X55978Y-47330D01*
X56438Y-47330D01*
X56438Y-47357D01*
X55978Y-47357D01*
X55978Y-47844D01*
X56052Y-47869D01*
X56133Y-47847D01*
X56290Y-47748D01*
X56397Y-47598D01*
X56438Y-47417D01*
X56438Y-48299D01*
X55951Y-48299D01*
X55951Y-47844D01*
X55951Y-47357D01*
X55951Y-47330D01*
X55951Y-46843D01*
X55877Y-46818D01*
X55796Y-46841D01*
X55639Y-46939D01*
X55532Y-47090D01*
X55491Y-47270D01*
X55491Y-47330D01*
X55951Y-47330D01*
X55951Y-47357D01*
X55491Y-47357D01*
X55491Y-47417D01*
X55532Y-47598D01*
X55639Y-47748D01*
X55796Y-47847D01*
X55877Y-47869D01*
X55951Y-47844D01*
X55951Y-48299D01*
X55438Y-48299D01*
X55438Y-47417D01*
X55438Y-47357D01*
X55438Y-47330D01*
X55438Y-47270D01*
X55411Y-47150D01*
X55411Y-41410D01*
X55411Y-41270D01*
X55377Y-41099D01*
X55280Y-40954D01*
X55135Y-40857D01*
X54964Y-40823D01*
X54794Y-40857D01*
X54649Y-40954D01*
X54552Y-41099D01*
X54518Y-41270D01*
X54518Y-41410D01*
X54552Y-41580D01*
X54649Y-41725D01*
X54794Y-41822D01*
X54964Y-41856D01*
X55135Y-41822D01*
X55280Y-41725D01*
X55377Y-41580D01*
X55411Y-41410D01*
X55411Y-47150D01*
X55397Y-47090D01*
X55290Y-46939D01*
X55133Y-46841D01*
X55052Y-46818D01*
X54978Y-46843D01*
X54978Y-47330D01*
X55438Y-47330D01*
X55438Y-47357D01*
X54978Y-47357D01*
X54978Y-47844D01*
X55052Y-47869D01*
X55133Y-47847D01*
X55290Y-47748D01*
X55397Y-47598D01*
X55438Y-47417D01*
X55438Y-48299D01*
X54951Y-48299D01*
X54951Y-47844D01*
X54951Y-47357D01*
X54951Y-47330D01*
X54951Y-46843D01*
X54877Y-46818D01*
X54796Y-46841D01*
X54639Y-46939D01*
X54532Y-47090D01*
X54491Y-47270D01*
X54491Y-47330D01*
X54951Y-47330D01*
X54951Y-47357D01*
X54491Y-47357D01*
X54491Y-47417D01*
X54532Y-47598D01*
X54639Y-47748D01*
X54796Y-47847D01*
X54877Y-47869D01*
X54951Y-47844D01*
X54951Y-48299D01*
X54438Y-48299D01*
X54438Y-41413D01*
X54438Y-41353D01*
X54438Y-41326D01*
X54438Y-41266D01*
X54397Y-41086D01*
X54290Y-40935D01*
X54133Y-40837D01*
X54052Y-40814D01*
X53978Y-40839D01*
X53978Y-41326D01*
X54438Y-41326D01*
X54438Y-41353D01*
X53978Y-41353D01*
X53978Y-41840D01*
X54052Y-41865D01*
X54133Y-41843D01*
X54290Y-41744D01*
X54397Y-41594D01*
X54438Y-41413D01*
X54438Y-48299D01*
X54411Y-48299D01*
X54411Y-47414D01*
X54411Y-47274D01*
X54377Y-47103D01*
X54280Y-46958D01*
X54135Y-46861D01*
X53964Y-46827D01*
X53951Y-46830D01*
X53951Y-41840D01*
X53951Y-41353D01*
X53951Y-41326D01*
X53951Y-40839D01*
X53877Y-40814D01*
X53796Y-40837D01*
X53639Y-40935D01*
X53532Y-41086D01*
X53491Y-41266D01*
X53491Y-41326D01*
X53951Y-41326D01*
X53951Y-41353D01*
X53491Y-41353D01*
X53491Y-41413D01*
X53532Y-41594D01*
X53639Y-41744D01*
X53796Y-41843D01*
X53877Y-41865D01*
X53951Y-41840D01*
X53951Y-46830D01*
X53794Y-46861D01*
X53649Y-46958D01*
X53552Y-47103D01*
X53518Y-47274D01*
X53518Y-47414D01*
X53552Y-47584D01*
X53649Y-47729D01*
X53794Y-47826D01*
X53964Y-47860D01*
X54135Y-47826D01*
X54280Y-47729D01*
X54377Y-47584D01*
X54411Y-47414D01*
X54411Y-48299D01*
X53411Y-48299D01*
X53411Y-47765D01*
X53411Y-47722D01*
X53411Y-46922D01*
X53411Y-41410D01*
X53411Y-41270D01*
X53377Y-41099D01*
X53280Y-40954D01*
X53135Y-40857D01*
X52964Y-40823D01*
X52794Y-40857D01*
X52649Y-40954D01*
X52552Y-41099D01*
X52518Y-41270D01*
X52518Y-41410D01*
X52552Y-41580D01*
X52649Y-41725D01*
X52794Y-41822D01*
X52964Y-41856D01*
X53135Y-41822D01*
X53280Y-41725D01*
X53377Y-41580D01*
X53411Y-41410D01*
X53411Y-46922D01*
X53395Y-46883D01*
X53365Y-46853D01*
X53326Y-46837D01*
X53283Y-46837D01*
X52603Y-46837D01*
X52564Y-46853D01*
X52534Y-46883D01*
X52518Y-46922D01*
X52518Y-46965D01*
X52518Y-47765D01*
X52534Y-47804D01*
X52564Y-47834D01*
X52603Y-47850D01*
X52646Y-47850D01*
X53326Y-47850D01*
X53365Y-47834D01*
X53395Y-47804D01*
X53411Y-47765D01*
X53411Y-48299D01*
X51582Y-48299D01*
X51582Y-47954D01*
X51582Y-47911D01*
X51582Y-46927D01*
X51582Y-41655D01*
X51582Y-41612D01*
X51582Y-40628D01*
X51566Y-40589D01*
X51536Y-40559D01*
X51497Y-40543D01*
X51455Y-40543D01*
X50470Y-40543D01*
X50431Y-40559D01*
X50402Y-40589D01*
X50385Y-40628D01*
X50385Y-40670D01*
X50385Y-41655D01*
X50402Y-41694D01*
X50431Y-41723D01*
X50470Y-41740D01*
X50513Y-41740D01*
X51497Y-41740D01*
X51536Y-41723D01*
X51566Y-41694D01*
X51582Y-41655D01*
X51582Y-46927D01*
X51566Y-46888D01*
X51536Y-46858D01*
X51497Y-46842D01*
X51455Y-46842D01*
X50470Y-46842D01*
X50431Y-46858D01*
X50402Y-46888D01*
X50385Y-46927D01*
X50385Y-46969D01*
X50385Y-47954D01*
X50402Y-47993D01*
X50431Y-48023D01*
X50470Y-48039D01*
X50513Y-48039D01*
X51497Y-48039D01*
X51536Y-48023D01*
X51566Y-47993D01*
X51582Y-47954D01*
X51582Y-48299D01*
X50996Y-48299D01*
X50656Y-48231D01*
X50379Y-48046D01*
X50193Y-47768D01*
X50125Y-47428D01*
X50125Y-41535D01*
X50125Y-41154D01*
X50193Y-40814D01*
X50379Y-40536D01*
X50656Y-40351D01*
X50996Y-40283D01*
X70460Y-40283D01*
X70799Y-40351D01*
X71077Y-40536D01*
X71263Y-40814D01*
X71330Y-41154D01*
X71330Y-41535D01*
X71330Y-47428D01*
M02*
